<?xml version="1.0" ?><svg enable-background="new 0 0 32 32" version="1.1" viewBox="0 0 32 32" xml:space="preserve" xmlns="http://www.w3.org/2000/svg" xmlns:xlink="http://www.w3.org/1999/xlink"><g id="style_2_copy_3"><g><g><g><g><path d="M16,0C7.178,0,0,7.178,0,16c0,8.822,7.178,16,16,16s16-7.178,16-16C32,7.178,24.822,0,16,0L16,0z" fill="#C1C1C1"/></g></g></g><g><g><path d="M16,31.14C7.652,31.14,0.86,24.348,0.86,16C0.86,7.652,7.652,0.86,16,0.86S31.14,7.652,31.14,16      C31.14,24.348,24.348,31.14,16,31.14z" fill="#FFFFFF"/></g><g><path d="M16,31.14C7.652,31.14,0.86,24.348,0.86,16C0.86,7.652,7.652,0.86,16,0.86S31.14,7.652,31.14,16      C31.14,24.348,24.348,31.14,16,31.14z" fill="#FFFFFF"/></g></g><g><path d="M16,30.057C8.249,30.057,1.943,23.751,1.943,16C1.943,8.249,8.249,1.943,16,1.943S30.057,8.249,30.057,16     C30.057,23.751,23.751,30.057,16,30.057z" fill="#282828"/></g><g><defs><path d="M30.057,16c0,7.751-6.306,14.057-14.057,14.057C8.249,30.057,1.943,23.751,1.943,16      S8.249,1.943,16,1.943C23.751,1.943,30.057,8.249,30.057,16z" id="SVGID_355_"/></defs><clipPath id="SVGID_38_"><use overflow="visible" xlink:href="#SVGID_355_"/></clipPath><g clip-path="url(#SVGID_38_)"><g><rect height="26.198" transform="matrix(0.7071 -0.7071 0.7071 0.7071 -15.497 12.0835)" width="0.5" x="6.588" y="11.65"/></g><g><rect height="26.197" transform="matrix(0.7071 -0.7071 0.7071 0.7071 -14.1181 12.6551)" width="0.5" x="7.967" y="10.271"/></g><g><rect height="31.976" transform="matrix(0.7071 -0.7071 0.7071 0.7071 -12.8258 13.4352)" width="0.5" x="9.555" y="6.212"/></g><g><rect height="31.975" transform="matrix(0.7071 -0.7071 0.7071 0.7071 -11.4466 14.0062)" width="0.5" x="10.934" y="4.833"/></g><g><rect height="35.496" transform="matrix(0.7071 -0.7071 0.7071 0.7071 -10.1621 14.8063)" width="0.5" x="12.542" y="1.922"/></g><g><rect height="35.496" transform="matrix(0.7071 -0.7071 0.7071 0.7071 -8.7832 15.3774)" width="0.5" x="13.921" y="0.543"/></g><g><rect height="35.496" transform="matrix(0.7071 -0.7071 0.7071 0.7071 -7.4043 15.9486)" width="0.5" x="15.3" y="-0.836"/></g><g><rect height="35.497" transform="matrix(0.7071 -0.7071 0.7071 0.7071 -6.0251 16.5192)" width="0.5" x="16.678" y="-2.216"/></g><g><rect height="35.497" transform="matrix(0.7071 -0.7071 0.7071 0.7071 -4.6462 17.0903)" width="0.5" x="18.057" y="-3.595"/></g><g><rect height="35.498" transform="matrix(0.7071 -0.7071 0.7071 0.7071 -3.2671 17.6623)" width="0.5" x="19.437" y="-4.974"/></g><g><rect height="31.232" transform="matrix(0.7071 -0.7071 0.7071 0.7071 -2.1972 18.9809)" width="0.5" x="21.563" y="-3.474"/></g><g><rect height="31.232" transform="matrix(0.7071 -0.7071 0.7071 0.7071 -0.8182 19.5521)" width="0.5" x="22.942" y="-4.852"/></g><g><rect height="26.144" transform="matrix(0.7071 -0.7071 0.7071 0.7071 0.8851 19.3398)" width="0.5" x="23.538" y="-4.47"/></g><g><rect height="26.144" transform="matrix(0.7071 -0.7071 0.7071 0.7071 2.264 19.911)" width="0.5" x="24.917" y="-5.849"/></g></g></g></g></g><g id="Official"><g><path d="M18.886,8.455c0,0-3.464,0-4.65,0c-2.127,0-4.13,1.493-4.13,3.359c0,1.907,1.45,3.39,3.614,3.39    c0.151,0,0.297-0.034,0.441-0.045c-0.142,0.268-0.24,0.556-0.24,0.871c0,0.53,0.284,0.954,0.644,1.304    c-0.27,0-0.535,0.004-0.822,0.004c-2.635,0.001-4.664,1.678-4.664,3.418c0,1.714,2.224,2.788,4.859,2.788    c3.005,0,4.664-1.706,4.664-3.42c0-1.374-0.406-2.198-1.659-3.086c-0.429-0.303-1.249-1.041-1.249-1.476    c0-0.508,0.145-0.759,0.911-1.358c0.784-0.613,1.34-1.344,1.34-2.347c0-1.193-0.513-2.648-1.511-2.648h1.697L18.886,8.455z     M17.325,19.827c0.036,0.16,0.058,0.324,0.058,0.49c0,1.385-0.894,2.468-3.455,2.468c-1.822,0-3.137-1.153-3.137-2.538    c0-1.357,1.632-2.488,3.454-2.468c0.424,0.005,0.821,0.073,1.18,0.188C16.415,18.655,17.124,19.044,17.325,19.827z M14.407,14.66    c-1.223-0.035-2.385-1.368-2.596-2.972c-0.21-1.607,0.61-2.836,1.832-2.8c1.222,0.038,2.385,1.326,2.596,2.932    C16.45,13.425,15.63,14.696,14.407,14.66z" fill="#FFFFFF"/><polygon fill="#FFFFFF" points="22.658,14.485 22.658,12.222 21.149,12.222 21.149,14.485 18.886,14.485 18.886,15.994     21.149,15.994 21.149,18.257 22.658,18.257 22.658,15.994 24.921,15.994 24.921,14.485   "/></g></g></svg>