<?xml version="1.0" ?><svg enable-background="new 0 0 32 32" version="1.1" viewBox="0 0 32 32" xml:space="preserve" xmlns="http://www.w3.org/2000/svg" xmlns:xlink="http://www.w3.org/1999/xlink"><g id="style_2_copy_3"><g><g><g><g><path d="M16,0C7.178,0,0,7.178,0,16c0,8.822,7.178,16,16,16s16-7.178,16-16C32,7.178,24.822,0,16,0L16,0z" fill="#C1C1C1"/></g></g></g><g><g><path d="M16,31.14C7.652,31.14,0.86,24.348,0.86,16C0.86,7.652,7.652,0.86,16,0.86S31.14,7.652,31.14,16      C31.14,24.348,24.348,31.14,16,31.14z" fill="#FFFFFF"/></g><g><path d="M16,31.14C7.652,31.14,0.86,24.348,0.86,16C0.86,7.652,7.652,0.86,16,0.86S31.14,7.652,31.14,16      C31.14,24.348,24.348,31.14,16,31.14z" fill="#FFFFFF"/></g></g><g><path d="M16,30.057C8.249,30.057,1.943,23.751,1.943,16C1.943,8.249,8.249,1.943,16,1.943S30.057,8.249,30.057,16     C30.057,23.751,23.751,30.057,16,30.057z" fill="#282828"/></g><g><defs><path d="M30.057,16c0,7.751-6.306,14.057-14.057,14.057C8.249,30.057,1.943,23.751,1.943,16      S8.249,1.943,16,1.943C23.751,1.943,30.057,8.249,30.057,16z" id="SVGID_331_"/></defs><clipPath id="SVGID_46_"><use overflow="visible" xlink:href="#SVGID_331_"/></clipPath><g clip-path="url(#SVGID_46_)"><g><rect height="26.197" transform="matrix(0.7071 -0.7071 0.7071 0.7071 -15.4974 12.0843)" width="0.5" x="6.588" y="11.65"/></g><g><rect height="26.197" transform="matrix(0.7071 -0.7071 0.7071 0.7071 -14.1185 12.6555)" width="0.5" x="7.967" y="10.272"/></g><g><rect height="31.975" transform="matrix(0.7071 -0.7071 0.7071 0.7071 -12.826 13.436)" width="0.5" x="9.555" y="6.212"/></g><g><rect height="31.975" transform="matrix(0.7071 -0.7071 0.7071 0.7071 -11.4471 14.0071)" width="0.5" x="10.934" y="4.833"/></g><g><rect height="35.498" transform="matrix(0.7071 -0.7071 0.7071 0.7071 -10.1623 14.8062)" width="0.5" x="12.542" y="1.921"/></g><g><rect height="35.498" transform="matrix(0.7071 -0.7071 0.7071 0.7071 -8.7834 15.3774)" width="0.5" x="13.92" y="0.542"/></g><g><rect height="35.497" transform="matrix(0.7071 -0.7071 0.7071 0.7071 -7.4042 15.9488)" width="0.5" x="15.299" y="-0.837"/></g><g><rect height="35.496" transform="matrix(0.7071 -0.7071 0.7071 0.7071 -6.0251 16.5199)" width="0.5" x="16.679" y="-2.215"/></g><g><rect height="35.496" transform="matrix(0.7071 -0.7071 0.7071 0.7071 -4.6462 17.091)" width="0.5" x="18.058" y="-3.594"/></g><g><rect height="35.496" transform="matrix(0.7071 -0.7071 0.7071 0.7071 -3.2673 17.6622)" width="0.5" x="19.437" y="-4.973"/></g><g><rect height="31.232" transform="matrix(0.7071 -0.7071 0.7071 0.7071 -2.1976 18.9798)" width="0.5" x="21.563" y="-3.473"/></g><g><rect height="31.232" transform="matrix(0.7071 -0.7071 0.7071 0.7071 -0.8188 19.5509)" width="0.5" x="22.941" y="-4.852"/></g><g><rect height="26.143" transform="matrix(0.7071 -0.7071 0.7071 0.7071 0.8849 19.339)" width="0.5" x="23.538" y="-4.47"/></g><g><rect height="26.143" transform="matrix(0.7071 -0.7071 0.7071 0.7071 2.2638 19.9102)" width="0.5" x="24.917" y="-5.849"/></g></g></g></g></g><g id="Official"><g><path d="M24.514,12.295c0,0-0.169-1.278-0.69-1.841c-0.661-0.738-1.401-0.742-1.741-0.784    c-2.432-0.188-6.079-0.188-6.079-0.188h-0.008c0,0-3.647,0-6.079,0.188c-0.339,0.042-1.079,0.046-1.741,0.784    c-0.52,0.563-0.69,1.841-0.69,1.841s-0.174,1.5-0.174,2.999V16.7c0,1.501,0.174,3,0.174,3s0.169,1.278,0.69,1.839    c0.662,0.738,1.529,0.715,1.916,0.792C11.482,22.474,16,22.518,16,22.518s3.651-0.006,6.083-0.193    c0.339-0.044,1.08-0.048,1.741-0.785c0.52-0.562,0.69-1.839,0.69-1.839s0.174-1.5,0.174-3v-1.406    C24.688,13.795,24.514,12.295,24.514,12.295z M13.83,19.259v-6.518L19.262,16L13.83,19.259z" fill="#FFFFFF"/></g></g></svg>