<?xml version="1.0" ?><svg enable-background="new 0 0 32 32" version="1.1" viewBox="0 0 32 32" xml:space="preserve" xmlns="http://www.w3.org/2000/svg" xmlns:xlink="http://www.w3.org/1999/xlink"><g id="style_2_copy_3"><g><g><g><g><path d="M16,0C7.178,0,0,7.178,0,16c0,8.822,7.178,16,16,16s16-7.178,16-16C32,7.178,24.822,0,16,0L16,0z" fill="#C1C1C1"/></g></g></g><g><g><path d="M16,31.14C7.652,31.14,0.86,24.348,0.86,16C0.86,7.652,7.652,0.86,16,0.86S31.14,7.652,31.14,16      C31.14,24.348,24.348,31.14,16,31.14z" fill="#FFFFFF"/></g><g><path d="M16,31.14C7.652,31.14,0.86,24.348,0.86,16C0.86,7.652,7.652,0.86,16,0.86S31.14,7.652,31.14,16      C31.14,24.348,24.348,31.14,16,31.14z" fill="#FFFFFF"/></g></g><g><path d="M16,30.057C8.249,30.057,1.943,23.751,1.943,16C1.943,8.249,8.249,1.943,16,1.943S30.057,8.249,30.057,16     C30.057,23.751,23.751,30.057,16,30.057z" fill="#282828"/></g><g><defs><path d="M30.057,16c0,7.751-6.306,14.057-14.057,14.057C8.249,30.057,1.943,23.751,1.943,16      S8.249,1.943,16,1.943C23.751,1.943,30.057,8.249,30.057,16z" id="SVGID_309_"/></defs><clipPath id="SVGID_26_"><use overflow="visible" xlink:href="#SVGID_309_"/></clipPath><g clip-path="url(#SVGID_26_)"><g><rect height="26.198" transform="matrix(0.7071 -0.7071 0.7071 0.7071 -15.4975 12.0842)" width="0.5" x="6.588" y="11.65"/></g><g><rect height="26.197" transform="matrix(0.7071 -0.7071 0.7071 0.7071 -14.118 12.6553)" width="0.5" x="7.967" y="10.271"/></g><g><rect height="31.976" transform="matrix(0.7071 -0.7071 0.7071 0.7071 -12.826 13.4358)" width="0.5" x="9.555" y="6.212"/></g><g><rect height="31.976" transform="matrix(0.7071 -0.7071 0.7071 0.7071 -11.4466 14.0065)" width="0.5" x="10.934" y="4.833"/></g><g><rect height="35.497" transform="matrix(0.7071 -0.7071 0.7071 0.7071 -10.1623 14.8066)" width="0.5" x="12.542" y="1.921"/></g><g><rect height="35.497" transform="matrix(0.7071 -0.7071 0.7071 0.7071 -8.783 15.3774)" width="0.5" x="13.921" y="0.542"/></g><g><rect height="35.497" transform="matrix(0.7071 -0.7071 0.7071 0.7071 -7.4041 15.9486)" width="0.5" x="15.3" y="-0.837"/></g><g><rect height="35.497" transform="matrix(0.7071 -0.7071 0.7071 0.7071 -6.0252 16.5197)" width="0.5" x="16.678" y="-2.215"/></g><g><rect height="35.497" transform="matrix(0.7071 -0.7071 0.7071 0.7071 -4.6463 17.0909)" width="0.5" x="18.057" y="-3.594"/></g><g><rect height="35.497" transform="matrix(0.7071 -0.7071 0.7071 0.7071 -3.2673 17.6617)" width="0.5" x="19.437" y="-4.974"/></g><g><rect height="31.231" transform="matrix(0.7071 -0.7071 0.7071 0.7071 -2.1974 18.9802)" width="0.5" x="21.563" y="-3.473"/></g><g><rect height="31.231" transform="matrix(0.7071 -0.7071 0.7071 0.7071 -0.8185 19.5514)" width="0.5" x="22.941" y="-4.852"/></g><g><rect height="26.143" transform="matrix(0.7071 -0.7071 0.7071 0.7071 0.8848 19.3392)" width="0.5" x="23.537" y="-4.47"/></g><g><rect height="26.143" transform="matrix(0.7071 -0.7071 0.7071 0.7071 2.264 19.9106)" width="0.5" x="24.916" y="-5.849"/></g></g></g></g></g><g id="Official"><path d="M13.892,24.123h3.357v-8.124h2.239l0.297-2.799h-2.536l0.003-1.402c0-0.73,0.07-1.121,1.117-1.121h1.4v-2.8   h-2.24c-2.69,0-3.637,1.358-3.637,3.642V13.2h-1.677V16h1.677V24.123z" fill="#FFFFFF"/></g></svg>