<?xml version="1.0" ?><svg enable-background="new 0 0 32 32" version="1.1" viewBox="0 0 32 32" xml:space="preserve" xmlns="http://www.w3.org/2000/svg" xmlns:xlink="http://www.w3.org/1999/xlink"><g id="style_2_copy_3"><g><g><g><g><path d="M16,0C7.178,0,0,7.178,0,16c0,8.822,7.178,16,16,16s16-7.178,16-16C32,7.178,24.822,0,16,0L16,0z" fill="#C1C1C1"/></g></g></g><g><g><path d="M16,31.14C7.652,31.14,0.86,24.348,0.86,16C0.86,7.652,7.652,0.86,16,0.86S31.14,7.652,31.14,16      C31.14,24.348,24.348,31.14,16,31.14z" fill="#FFFFFF"/></g><g><path d="M16,31.14C7.652,31.14,0.86,24.348,0.86,16C0.86,7.652,7.652,0.86,16,0.86S31.14,7.652,31.14,16      C31.14,24.348,24.348,31.14,16,31.14z" fill="#FFFFFF"/></g></g><g><path d="M16,30.057C8.249,30.057,1.943,23.751,1.943,16C1.943,8.249,8.249,1.943,16,1.943S30.057,8.249,30.057,16     C30.057,23.751,23.751,30.057,16,30.057z" fill="#282828"/></g><g><defs><path d="M30.057,16c0,7.751-6.306,14.057-14.057,14.057C8.249,30.057,1.943,23.751,1.943,16      S8.249,1.943,16,1.943C23.751,1.943,30.057,8.249,30.057,16z" id="SVGID_345_"/></defs><clipPath id="SVGID_52_"><use overflow="visible" xlink:href="#SVGID_345_"/></clipPath><g clip-path="url(#SVGID_52_)"><g><rect height="26.198" transform="matrix(0.7071 -0.7071 0.7071 0.7071 -15.4971 12.0832)" width="0.5" x="6.588" y="11.65"/></g><g><rect height="26.198" transform="matrix(0.7071 -0.7071 0.7071 0.7071 -14.1184 12.6558)" width="0.5" x="7.967" y="10.271"/></g><g><rect height="31.975" transform="matrix(0.7071 -0.7071 0.7071 0.7071 -12.8256 13.4348)" width="0.5" x="9.555" y="6.212"/></g><g><rect height="31.975" transform="matrix(0.7071 -0.7071 0.7071 0.7071 -11.4467 14.006)" width="0.5" x="10.934" y="4.833"/></g><g><rect height="35.496" transform="matrix(0.7071 -0.7071 0.7071 0.7071 -10.1622 14.806)" width="0.5" x="12.541" y="1.922"/></g><g><rect height="35.496" transform="matrix(0.7071 -0.7071 0.7071 0.7071 -8.7833 15.3772)" width="0.5" x="13.92" y="0.543"/></g><g><rect height="35.497" transform="matrix(0.7071 -0.7071 0.7071 0.7071 -7.4043 15.9491)" width="0.5" x="15.3" y="-0.836"/></g><g><rect height="35.498" transform="matrix(0.7071 -0.7071 0.7071 0.7071 -6.025 16.5197)" width="0.5" x="16.679" y="-2.216"/></g><g><rect height="35.498" transform="matrix(0.7071 -0.7071 0.7071 0.7071 -4.6461 17.0909)" width="0.5" x="18.057" y="-3.595"/></g><g><rect height="35.497" transform="matrix(0.7071 -0.7071 0.7071 0.7071 -3.2672 17.6619)" width="0.5" x="19.437" y="-4.974"/></g><g><rect height="31.231" transform="matrix(0.7071 -0.7071 0.7071 0.7071 -2.1973 18.9805)" width="0.5" x="21.563" y="-3.473"/></g><g><rect height="31.231" transform="matrix(0.7071 -0.7071 0.7071 0.7071 -0.8184 19.5516)" width="0.5" x="22.942" y="-4.852"/></g><g><rect height="26.144" transform="matrix(0.7071 -0.7071 0.7071 0.7071 0.885 19.3396)" width="0.5" x="23.537" y="-4.47"/></g><g><rect height="26.144" transform="matrix(0.7071 -0.7071 0.7071 0.7071 2.2639 19.9108)" width="0.5" x="24.916" y="-5.849"/></g></g></g></g></g><g id="Official"><path d="M23.605,14.516c0.099,0.529,0.153,1.084,0.153,1.662c0,4.522-3.028,7.739-7.6,7.739   c-4.374,0-7.917-3.543-7.917-7.917s3.543-7.917,7.917-7.917c2.138,0,3.924,0.787,5.294,2.063l-2.232,2.232v-0.005   c-0.831-0.792-1.885-1.197-3.062-1.197c-2.612,0-4.735,2.207-4.735,4.819c0,2.612,2.123,4.824,4.735,4.824   c2.37,0,3.983-1.356,4.315-3.216h-4.315v-3.088L23.605,14.516L23.605,14.516z" fill="#FFFFFF"/></g></svg>