<?xml version="1.0" ?><svg enable-background="new 0 0 32 32" version="1.1" viewBox="0 0 32 32" xml:space="preserve" xmlns="http://www.w3.org/2000/svg" xmlns:xlink="http://www.w3.org/1999/xlink"><g id="style_2_copy_3"><g><g><g><g><path d="M16,0C7.178,0,0,7.178,0,16c0,8.822,7.178,16,16,16s16-7.178,16-16C32,7.178,24.822,0,16,0L16,0z" fill="#C1C1C1"/></g></g></g><g><g><path d="M16,31.14C7.652,31.14,0.86,24.348,0.86,16C0.86,7.652,7.652,0.86,16,0.86S31.14,7.652,31.14,16      C31.14,24.348,24.348,31.14,16,31.14z" fill="#FFFFFF"/></g><g><path d="M16,31.14C7.652,31.14,0.86,24.348,0.86,16C0.86,7.652,7.652,0.86,16,0.86S31.14,7.652,31.14,16      C31.14,24.348,24.348,31.14,16,31.14z" fill="#FFFFFF"/></g></g><g><path d="M16,30.057C8.249,30.057,1.943,23.751,1.943,16C1.943,8.249,8.249,1.943,16,1.943S30.057,8.249,30.057,16     C30.057,23.751,23.751,30.057,16,30.057z" fill="#282828"/></g><g><defs><path d="M30.057,16c0,7.751-6.306,14.057-14.057,14.057C8.249,30.057,1.943,23.751,1.943,16      S8.249,1.943,16,1.943C23.751,1.943,30.057,8.249,30.057,16z" id="SVGID_313_"/></defs><clipPath id="SVGID_38_"><use overflow="visible" xlink:href="#SVGID_313_"/></clipPath><g clip-path="url(#SVGID_38_)"><g><rect height="26.198" transform="matrix(0.7071 -0.7071 0.7071 0.7071 -15.4973 12.0841)" width="0.5" x="6.588" y="11.65"/></g><g><rect height="26.197" transform="matrix(0.7071 -0.7071 0.7071 0.7071 -14.118 12.6553)" width="0.5" x="7.967" y="10.271"/></g><g><rect height="31.976" transform="matrix(0.7071 -0.7071 0.7071 0.7071 -12.826 13.4358)" width="0.5" x="9.555" y="6.212"/></g><g><rect height="31.976" transform="matrix(0.7071 -0.7071 0.7071 0.7071 -11.4468 14.0066)" width="0.5" x="10.934" y="4.833"/></g><g><rect height="35.497" transform="matrix(0.7071 -0.7071 0.7071 0.7071 -10.1623 14.8066)" width="0.5" x="12.542" y="1.921"/></g><g><rect height="35.497" transform="matrix(0.7071 -0.7071 0.7071 0.7071 -8.7831 15.3775)" width="0.5" x="13.92" y="0.542"/></g><g><rect height="35.497" transform="matrix(0.7071 -0.7071 0.7071 0.7071 -7.4042 15.9486)" width="0.5" x="15.299" y="-0.837"/></g><g><rect height="35.497" transform="matrix(0.7071 -0.7071 0.7071 0.7071 -6.0252 16.5197)" width="0.5" x="16.679" y="-2.215"/></g><g><rect height="35.497" transform="matrix(0.7071 -0.7071 0.7071 0.7071 -4.6463 17.0908)" width="0.5" x="18.058" y="-3.594"/></g><g><rect height="35.497" transform="matrix(0.7071 -0.7071 0.7071 0.7071 -3.2673 17.6617)" width="0.5" x="19.437" y="-4.974"/></g><g><rect height="31.231" transform="matrix(0.7071 -0.7071 0.7071 0.7071 -2.1974 18.9802)" width="0.5" x="21.563" y="-3.473"/></g><g><rect height="31.231" transform="matrix(0.7071 -0.7071 0.7071 0.7071 -0.8185 19.5514)" width="0.5" x="22.941" y="-4.852"/></g><g><rect height="26.143" transform="matrix(0.7071 -0.7071 0.7071 0.7071 0.8847 19.3391)" width="0.5" x="23.538" y="-4.47"/></g><g><rect height="26.143" transform="matrix(0.7071 -0.7071 0.7071 0.7071 2.2639 19.9105)" width="0.5" x="24.917" y="-5.849"/></g></g></g></g></g><g id="Official"><path d="M16.659,21.845c-2.371,0.126-3.481-0.409-4.498-1.382c-1.135-1.087-0.679-2.326,0.245-2.389   c0.924-0.063,1.479,1.068,1.973,1.383c0.493,0.314,2.367,1.028,3.358-0.127c1.078-1.257-0.717-1.906-2.034-2.104   c-1.879-0.283-4.252-1.32-4.067-3.363c0.184-2.041,1.701-3.088,3.296-3.236c2.034-0.188,3.358,0.314,4.405,1.226   c1.211,1.053,0.555,2.23-0.215,2.325c-0.768,0.094-1.631-1.732-3.326-1.759c-1.747-0.028-2.927,1.854-0.771,2.388   c2.157,0.534,4.468,0.754,5.3,2.764C21.158,19.583,19.032,21.718,16.659,21.845z M23.346,17.061c0.045-0.335,0.07-0.675,0.07-1.021   c0-4.155-3.338-7.524-7.454-7.524c-0.409,0-0.81,0.034-1.201,0.099c-0.7-0.463-1.534-0.733-2.43-0.733   c-2.458,0-4.448,2.021-4.448,4.514c0,0.907,0.263,1.75,0.716,2.457c-0.061,0.387-0.092,0.783-0.092,1.186   c0,4.156,3.336,7.524,7.454,7.524c0.465,0,0.918-0.046,1.357-0.126c0.683,0.43,1.489,0.68,2.352,0.68   c2.457,0,4.448-2.021,4.448-4.514C24.118,18.661,23.834,17.785,23.346,17.061z" fill="#FFFFFF"/></g></svg>