<?xml version="1.0" ?><svg enable-background="new 0 0 32 32" version="1.1" viewBox="0 0 32 32" xml:space="preserve" xmlns="http://www.w3.org/2000/svg" xmlns:xlink="http://www.w3.org/1999/xlink"><g id="style_2_copy_3"><g><g><g><g><path d="M16,0C7.178,0,0,7.178,0,16c0,8.822,7.178,16,16,16s16-7.178,16-16C32,7.178,24.822,0,16,0L16,0z" fill="#C1C1C1"/></g></g></g><g><g><path d="M16,31.14C7.652,31.14,0.86,24.348,0.86,16C0.86,7.652,7.652,0.86,16,0.86S31.14,7.652,31.14,16      C31.14,24.348,24.348,31.14,16,31.14z" fill="#FFFFFF"/></g><g><path d="M16,31.14C7.652,31.14,0.86,24.348,0.86,16C0.86,7.652,7.652,0.86,16,0.86S31.14,7.652,31.14,16      C31.14,24.348,24.348,31.14,16,31.14z" fill="#FFFFFF"/></g></g><g><path d="M16,30.057C8.249,30.057,1.943,23.751,1.943,16C1.943,8.249,8.249,1.943,16,1.943S30.057,8.249,30.057,16     C30.057,23.751,23.751,30.057,16,30.057z" fill="#282828"/></g><g><defs><path d="M30.057,16c0,7.751-6.306,14.057-14.057,14.057C8.249,30.057,1.943,23.751,1.943,16      S8.249,1.943,16,1.943C23.751,1.943,30.057,8.249,30.057,16z" id="SVGID_321_"/></defs><clipPath id="SVGID_46_"><use overflow="visible" xlink:href="#SVGID_321_"/></clipPath><g clip-path="url(#SVGID_46_)"><g><rect height="26.198" transform="matrix(0.7071 -0.7071 0.7071 0.7071 -15.4974 12.0846)" width="0.5" x="6.588" y="11.65"/></g><g><rect height="26.197" transform="matrix(0.7071 -0.7071 0.7071 0.7071 -14.1181 12.6555)" width="0.5" x="7.968" y="10.271"/></g><g><rect height="31.975" transform="matrix(0.7071 -0.7071 0.7071 0.7071 -12.8257 13.4348)" width="0.5" x="9.555" y="6.212"/></g><g><rect height="31.974" transform="matrix(0.7071 -0.7071 0.7071 0.7071 -11.4466 14.0063)" width="0.5" x="10.934" y="4.833"/></g><g><rect height="35.496" transform="matrix(0.7071 -0.7071 0.7071 0.7071 -10.1624 14.806)" width="0.5" x="12.541" y="1.922"/></g><g><rect height="35.497" transform="matrix(0.7071 -0.7071 0.7071 0.7071 -8.7834 15.378)" width="0.5" x="13.921" y="0.543"/></g><g><rect height="35.498" transform="matrix(0.7071 -0.7071 0.7071 0.7071 -7.4041 15.9485)" width="0.5" x="15.3" y="-0.837"/></g><g><rect height="35.498" transform="matrix(0.7071 -0.7071 0.7071 0.7071 -6.0251 16.5197)" width="0.5" x="16.678" y="-2.216"/></g><g><rect height="35.498" transform="matrix(0.7071 -0.7071 0.7071 0.7071 -4.6462 17.0909)" width="0.5" x="18.057" y="-3.595"/></g><g><rect height="35.497" transform="matrix(0.7071 -0.7071 0.7071 0.7071 -3.2673 17.6619)" width="0.5" x="19.437" y="-4.973"/></g><g><rect height="31.231" transform="matrix(0.7071 -0.7071 0.7071 0.7071 -2.1974 18.9804)" width="0.5" x="21.563" y="-3.473"/></g><g><rect height="31.231" transform="matrix(0.7071 -0.7071 0.7071 0.7071 -0.8185 19.5516)" width="0.5" x="22.942" y="-4.852"/></g><g><rect height="26.144" transform="matrix(0.7071 -0.7071 0.7071 0.7071 0.8848 19.3396)" width="0.5" x="23.537" y="-4.47"/></g><g><rect height="26.144" transform="matrix(0.7071 -0.7071 0.7071 0.7071 2.2637 19.9107)" width="0.5" x="24.916" y="-5.849"/></g></g></g></g></g><g id="Official"><path d="M23.247,21.927v-5.36c0-2.872-1.533-4.208-3.577-4.208c-1.649,0-2.388,0.907-2.8,1.544v-1.324h-3.107   c0.041,0.877,0,9.348,0,9.348h3.107v-5.221c0-0.279,0.02-0.558,0.103-0.757c0.224-0.558,0.735-1.136,1.593-1.136   c1.125,0,1.574,0.857,1.574,2.113v5.001L23.247,21.927L23.247,21.927z M10.49,11.303c1.083,0,1.758-0.718,1.758-1.616   c-0.02-0.917-0.675-1.614-1.738-1.614S8.753,8.77,8.753,9.687c0,0.897,0.675,1.616,1.717,1.616H10.49z M12.043,21.927v-9.348H8.937   v9.348H12.043z" fill="#FFFFFF"/></g></svg>