<?xml version="1.0" ?><svg enable-background="new 0 0 32 32" version="1.1" viewBox="0 0 32 32" xml:space="preserve" xmlns="http://www.w3.org/2000/svg" xmlns:xlink="http://www.w3.org/1999/xlink"><g id="style_2_copy_3"><g><g><g><g><path d="M16,0C7.178,0,0,7.178,0,16c0,8.822,7.178,16,16,16s16-7.178,16-16C32,7.178,24.822,0,16,0L16,0z" fill="#C1C1C1"/></g></g></g><g><g><path d="M16,31.14C7.652,31.14,0.86,24.348,0.86,16C0.86,7.652,7.652,0.86,16,0.86S31.14,7.652,31.14,16      C31.14,24.348,24.348,31.14,16,31.14z" fill="#FFFFFF"/></g><g><path d="M16,31.14C7.652,31.14,0.86,24.348,0.86,16C0.86,7.652,7.652,0.86,16,0.86S31.14,7.652,31.14,16      C31.14,24.348,24.348,31.14,16,31.14z" fill="#FFFFFF"/></g></g><g><path d="M16,30.057C8.249,30.057,1.943,23.751,1.943,16C1.943,8.249,8.249,1.943,16,1.943S30.057,8.249,30.057,16     C30.057,23.751,23.751,30.057,16,30.057z" fill="#282828"/></g><g><defs><path d="M30.057,16c0,7.751-6.306,14.057-14.057,14.057C8.249,30.057,1.943,23.751,1.943,16      S8.249,1.943,16,1.943C23.751,1.943,30.057,8.249,30.057,16z" id="SVGID_319_"/></defs><clipPath id="SVGID_34_"><use overflow="visible" xlink:href="#SVGID_319_"/></clipPath><g clip-path="url(#SVGID_34_)"><g><rect height="26.199" transform="matrix(0.7071 -0.7071 0.7071 0.7071 -15.4972 12.0838)" width="0.5" x="6.588" y="11.65"/></g><g><rect height="26.197" transform="matrix(0.7071 -0.7071 0.7071 0.7071 -14.118 12.6553)" width="0.5" x="7.967" y="10.271"/></g><g><rect height="31.976" transform="matrix(0.7071 -0.7071 0.7071 0.7071 -12.8257 13.4354)" width="0.5" x="9.555" y="6.212"/></g><g><rect height="31.976" transform="matrix(0.7071 -0.7071 0.7071 0.7071 -11.4466 14.0065)" width="0.5" x="10.934" y="4.833"/></g><g><rect height="35.497" transform="matrix(0.7071 -0.7071 0.7071 0.7071 -10.1623 14.8066)" width="0.5" x="12.542" y="1.921"/></g><g><rect height="35.497" transform="matrix(0.7071 -0.7071 0.7071 0.7071 -8.7832 15.3777)" width="0.5" x="13.921" y="0.543"/></g><g><rect height="35.497" transform="matrix(0.7071 -0.7071 0.7071 0.7071 -7.4043 15.9489)" width="0.5" x="15.3" y="-0.836"/></g><g><rect height="35.497" transform="matrix(0.7071 -0.7071 0.7071 0.7071 -6.0251 16.5194)" width="0.5" x="16.678" y="-2.216"/></g><g><rect height="35.497" transform="matrix(0.7071 -0.7071 0.7071 0.7071 -4.6462 17.0906)" width="0.5" x="18.057" y="-3.595"/></g><g><rect height="35.497" transform="matrix(0.7071 -0.7071 0.7071 0.7071 -3.2673 17.6617)" width="0.5" x="19.437" y="-4.974"/></g><g><rect height="31.231" transform="matrix(0.7071 -0.7071 0.7071 0.7071 -2.1974 18.9802)" width="0.5" x="21.563" y="-3.473"/></g><g><rect height="31.231" transform="matrix(0.7071 -0.7071 0.7071 0.7071 -0.8185 19.5514)" width="0.5" x="22.941" y="-4.852"/></g><g><rect height="26.143" transform="matrix(0.7071 -0.7071 0.7071 0.7071 0.8848 19.3392)" width="0.5" x="23.537" y="-4.47"/></g><g><rect height="26.143" transform="matrix(0.7071 -0.7071 0.7071 0.7071 2.2637 19.9104)" width="0.5" x="24.916" y="-5.849"/></g></g></g></g></g><g id="Official"><path d="M18.014,9.564c-1.439,0.523-2.348,1.874-2.244,3.351l0.035,0.57l-0.576-0.07   c-2.094-0.268-3.925-1.175-5.479-2.7L8.99,9.959l-0.196,0.559c-0.414,1.245-0.149,2.56,0.714,3.445   c0.46,0.489,0.356,0.559-0.437,0.268c-0.276-0.093-0.518-0.163-0.541-0.128c-0.08,0.082,0.196,1.14,0.414,1.559   c0.299,0.582,0.909,1.152,1.577,1.49l0.564,0.268l-0.667,0.012c-0.644,0-0.667,0.012-0.598,0.257   c0.23,0.756,1.139,1.559,2.152,1.909l0.714,0.244l-0.621,0.372c-0.921,0.536-2.003,0.838-3.085,0.861   c-0.519,0.012-0.944,0.058-0.944,0.093c0,0.116,1.405,0.767,2.221,1.024c2.451,0.756,5.364,0.43,7.551-0.861   c1.554-0.92,3.107-2.746,3.833-4.516c0.392-0.942,0.783-2.665,0.783-3.49c0-0.536,0.035-0.605,0.679-1.245   c0.38-0.372,0.737-0.779,0.806-0.896c0.115-0.221,0.103-0.221-0.483-0.024c-0.978,0.349-1.117,0.303-0.633-0.221   c0.356-0.372,0.783-1.047,0.783-1.245c0-0.035-0.172,0.023-0.369,0.128c-0.207,0.116-0.667,0.291-1.013,0.395l-0.621,0.198   l-0.564-0.385c-0.311-0.209-0.748-0.442-0.978-0.512C19.442,9.355,18.544,9.378,18.014,9.564z" fill="#FFFFFF"/></g></svg>