<?xml version="1.0" ?><svg enable-background="new 0 0 32 32" version="1.1" viewBox="0 0 32 32" xml:space="preserve" xmlns="http://www.w3.org/2000/svg" xmlns:xlink="http://www.w3.org/1999/xlink"><g id="style_2_copy_3"><g><g><g><g><path d="M16,0C7.178,0,0,7.178,0,16c0,8.822,7.178,16,16,16s16-7.178,16-16C32,7.178,24.822,0,16,0L16,0z" fill="#C1C1C1"/></g></g></g><g><g><path d="M16,31.14C7.652,31.14,0.86,24.348,0.86,16C0.86,7.652,7.652,0.86,16,0.86S31.14,7.652,31.14,16      C31.14,24.348,24.348,31.14,16,31.14z" fill="#FFFFFF"/></g><g><path d="M16,31.14C7.652,31.14,0.86,24.348,0.86,16C0.86,7.652,7.652,0.86,16,0.86S31.14,7.652,31.14,16      C31.14,24.348,24.348,31.14,16,31.14z" fill="#FFFFFF"/></g></g><g><path d="M16,30.057C8.249,30.057,1.943,23.751,1.943,16C1.943,8.249,8.249,1.943,16,1.943S30.057,8.249,30.057,16     C30.057,23.751,23.751,30.057,16,30.057z" fill="#282828"/></g><g><defs><path d="M30.057,16c0,7.751-6.306,14.057-14.057,14.057C8.249,30.057,1.943,23.751,1.943,16      S8.249,1.943,16,1.943C23.751,1.943,30.057,8.249,30.057,16z" id="SVGID_333_"/></defs><clipPath id="SVGID_52_"><use overflow="visible" xlink:href="#SVGID_333_"/></clipPath><g clip-path="url(#SVGID_52_)"><g><rect height="26.197" transform="matrix(0.7071 -0.7071 0.7071 0.7071 -15.4974 12.0843)" width="0.5" x="6.588" y="11.65"/></g><g><rect height="26.197" transform="matrix(0.7071 -0.7071 0.7071 0.7071 -14.1185 12.6555)" width="0.5" x="7.967" y="10.272"/></g><g><rect height="31.975" transform="matrix(0.7071 -0.7071 0.7071 0.7071 -12.826 13.436)" width="0.5" x="9.555" y="6.212"/></g><g><rect height="31.975" transform="matrix(0.7071 -0.7071 0.7071 0.7071 -11.4471 14.0071)" width="0.5" x="10.934" y="4.833"/></g><g><rect height="35.498" transform="matrix(0.7071 -0.7071 0.7071 0.7071 -10.1623 14.8062)" width="0.5" x="12.542" y="1.921"/></g><g><rect height="35.498" transform="matrix(0.7071 -0.7071 0.7071 0.7071 -8.7834 15.3774)" width="0.5" x="13.92" y="0.542"/></g><g><rect height="35.497" transform="matrix(0.7071 -0.7071 0.7071 0.7071 -7.4042 15.9488)" width="0.5" x="15.299" y="-0.837"/></g><g><rect height="35.496" transform="matrix(0.7071 -0.7071 0.7071 0.7071 -6.0251 16.5199)" width="0.5" x="16.679" y="-2.215"/></g><g><rect height="35.496" transform="matrix(0.7071 -0.7071 0.7071 0.7071 -4.6462 17.091)" width="0.5" x="18.058" y="-3.594"/></g><g><rect height="35.496" transform="matrix(0.7071 -0.7071 0.7071 0.7071 -3.2673 17.6622)" width="0.5" x="19.437" y="-4.973"/></g><g><rect height="31.232" transform="matrix(0.7071 -0.7071 0.7071 0.7071 -2.1976 18.9798)" width="0.5" x="21.563" y="-3.473"/></g><g><rect height="31.232" transform="matrix(0.7071 -0.7071 0.7071 0.7071 -0.8188 19.5509)" width="0.5" x="22.941" y="-4.852"/></g><g><rect height="26.143" transform="matrix(0.7071 -0.7071 0.7071 0.7071 0.8849 19.339)" width="0.5" x="23.538" y="-4.47"/></g><g><rect height="26.143" transform="matrix(0.7071 -0.7071 0.7071 0.7071 2.2638 19.9102)" width="0.5" x="24.917" y="-5.849"/></g></g></g></g></g><g id="Official"><path d="M16.113,23.404c-0.046,0-0.091-0.001-0.137-0.003h0c-0.029,0.002-0.059,0.003-0.089,0.003   c-1.061,0-1.742-0.481-2.4-0.947c-0.455-0.321-0.884-0.624-1.389-0.709c-0.247-0.041-0.492-0.062-0.729-0.062   c-0.427,0-0.765,0.066-1.011,0.114c-0.15,0.029-0.279,0.054-0.377,0.054c-0.102,0-0.214-0.022-0.262-0.187   c-0.042-0.143-0.072-0.281-0.101-0.415c-0.075-0.344-0.129-0.556-0.273-0.578c-1.682-0.26-2.164-0.614-2.271-0.866   c-0.015-0.036-0.024-0.072-0.026-0.108c-0.005-0.097,0.063-0.182,0.158-0.197c2.586-0.426,3.746-3.069,3.794-3.182   c0.001-0.003,0.003-0.006,0.004-0.009c0.158-0.321,0.189-0.599,0.092-0.827c-0.177-0.418-0.756-0.602-1.14-0.724   c-0.094-0.03-0.183-0.058-0.253-0.085c-0.765-0.302-0.828-0.613-0.798-0.771c0.051-0.269,0.411-0.457,0.703-0.457   c0.08,0,0.15,0.014,0.209,0.042c0.344,0.161,0.654,0.243,0.921,0.243c0.37,0,0.531-0.155,0.551-0.176   c-0.009-0.175-0.021-0.358-0.033-0.546c-0.077-1.223-0.172-2.742,0.214-3.609c1.159-2.6,3.618-2.802,4.344-2.802   c0.019,0,0.318-0.003,0.318-0.003l0.043,0c0.728,0,3.192,0.202,4.352,2.803c0.387,0.868,0.291,2.388,0.214,3.61l-0.003,0.053   c-0.011,0.17-0.021,0.336-0.03,0.494c0.018,0.019,0.167,0.162,0.502,0.175h0c0.255-0.01,0.547-0.091,0.868-0.241   c0.094-0.044,0.199-0.053,0.27-0.053c0.109,0,0.219,0.021,0.31,0.059l0.006,0.002c0.26,0.092,0.43,0.274,0.434,0.464   c0.003,0.179-0.133,0.448-0.804,0.714c-0.07,0.027-0.158,0.056-0.253,0.085c-0.384,0.122-0.962,0.305-1.14,0.724   c-0.097,0.228-0.066,0.506,0.092,0.827c0.001,0.003,0.003,0.006,0.004,0.009c0.048,0.112,1.207,2.755,3.794,3.181   c0.096,0.016,0.164,0.101,0.158,0.198c-0.002,0.036-0.011,0.073-0.026,0.108c-0.107,0.25-0.588,0.604-2.271,0.864   c-0.137,0.021-0.191,0.2-0.273,0.576c-0.03,0.137-0.06,0.271-0.102,0.412c-0.036,0.123-0.112,0.18-0.241,0.18h-0.021   c-0.089,0-0.216-0.016-0.377-0.047c-0.285-0.056-0.604-0.107-1.011-0.107c-0.237,0-0.483,0.021-0.73,0.062   c-0.505,0.084-0.934,0.387-1.387,0.708C17.855,22.922,17.174,23.404,16.113,23.404z" fill="#FFFFFF"/></g></svg>