<svg width="1560.000000pt" height="1153.000000pt" viewBox="0 0 1560.000000 1153.000000" xmlns="http://www.w3.org/2000/svg">
  <g transform="translate(0.000000,1153.000000) scale(0.100000,-0.100000)" fill="#fefefe" stroke="none">
    <path d="M0 5765 c0 -5765 0 -5765 4620 -5765 3073 0 4620 3 4620 10 0 6 -6
10 -12 10 -7 0 -40 5 -73 10 -55 8 -93 15 -225 41 -25 4 -88 15 -140 24 -52 8
-113 19 -135 24 -102 22 -233 52 -267 61 -21 5 -57 15 -80 21 -24 6 -54 15
-68 19 -14 4 -52 16 -85 25 -70 20 -231 72 -260 84 -11 5 -42 17 -70 26 -27 9
-69 25 -92 36 -24 10 -47 19 -53 19 -6 0 -18 4 -28 10 -9 5 -61 27 -115 50
-162 67 -245 108 -254 124 -5 9 -54 39 -108 67 -55 28 -143 76 -195 107 -52
30 -108 62 -124 71 -17 9 -38 24 -49 33 -10 9 -32 22 -48 28 -16 7 -29 16 -29
21 0 5 -6 9 -14 9 -8 0 -21 6 -28 13 -7 7 -47 35 -88 61 -41 27 -83 58 -94 68
-11 10 -23 18 -27 18 -4 0 -14 6 -21 13 -7 7 -29 24 -48 37 -19 14 -42 30 -50
37 -8 6 -34 27 -57 45 -130 104 -168 135 -183 148 -9 8 -47 42 -85 74 -147
126 -521 511 -640 660 -34 42 -53 66 -75 93 -9 10 -29 36 -45 58 -16 22 -33
42 -36 45 -9 8 -120 166 -181 259 -31 47 -60 91 -65 96 -5 6 -22 33 -38 60
-16 28 -46 76 -67 107 -21 31 -43 67 -48 80 -5 13 -23 46 -39 73 -159 266
-365 757 -481 1145 -12 41 -26 86 -30 100 -15 49 -30 106 -55 215 -54 229 -61
265 -76 370 -6 44 -15 105 -20 135 -67 441 -78 987 -28 1425 22 196 61 445 89
570 50 220 82 347 106 425 8 25 21 68 29 95 21 70 39 126 75 230 32 92 34 98
68 175 11 25 23 56 26 70 4 14 16 43 26 65 10 22 33 72 50 110 64 139 185 381
222 444 21 34 38 66 38 70 0 3 23 40 50 81 27 41 50 78 50 82 0 6 100 161 119
184 5 6 21 30 36 55 16 24 31 46 34 49 4 3 29 37 56 75 27 39 55 76 62 83 7 8
18 23 24 34 6 11 21 32 34 47 25 28 43 50 90 108 169 210 434 481 677 693 81
71 102 88 188 157 19 15 37 30 40 33 3 3 50 38 105 78 55 40 106 77 113 83 59
49 424 279 443 279 5 0 9 4 9 8 0 4 12 13 28 19 15 7 61 31 102 54 82 45 232
121 323 163 131 60 166 75 257 111 52 20 104 41 115 46 36 17 308 110 365 125
30 8 69 19 85 24 104 31 189 54 250 67 39 8 88 19 110 24 70 17 128 29 225 45
335 56 486 72 733 81 97 3 177 9 177 14 0 5 -2090 9 -4870 9 -4870 0 -4870 0
-4870 -5765z m715 3486 c50 -11 109 -33 215 -78 55 -24 63 -28 129 -66 20 -11
54 -30 77 -42 34 -19 147 -92 234 -152 42 -28 133 -96 166 -123 17 -14 48 -38
69 -55 36 -28 154 -126 185 -153 67 -57 130 -113 161 -142 21 -19 86 -80 145
-135 164 -152 329 -318 440 -441 125 -140 143 -160 179 -209 17 -22 32 -42 35
-45 4 -3 19 -23 36 -45 32 -45 32 -45 74 -99 17 -21 30 -42 30 -46 0 -4 9 -18
20 -31 12 -12 31 -39 42 -59 12 -19 25 -37 29 -40 3 -3 13 -19 22 -37 9 -17
22 -37 29 -45 7 -8 22 -29 32 -48 10 -19 44 -80 76 -135 100 -177 260 -517
260 -554 0 -6 4 -19 10 -29 12 -23 47 -127 65 -193 44 -169 54 -211 66 -279
28 -148 13 -474 -23 -496 -4 -3 -8 -12 -8 -21 0 -17 -66 -114 -86 -126 -7 -4
-19 -14 -27 -21 -16 -16 -82 -48 -142 -68 -27 -9 -93 -13 -210 -12 -164 0
-217 7 -357 44 -37 10 -49 13 -153 43 -27 8 -79 26 -114 41 -36 14 -68 26 -73
26 -5 0 -30 10 -56 21 -26 12 -72 32 -102 46 -70 31 -263 126 -270 133 -7 7
-48 30 -85 49 -16 8 -56 31 -87 52 -31 20 -66 40 -77 44 -12 3 -21 10 -21 14
0 4 -19 18 -42 31 -24 13 -47 28 -53 32 -5 5 -41 31 -80 58 -38 27 -88 62
-109 77 -21 16 -57 43 -80 61 -23 18 -48 39 -56 45 -223 175 -529 475 -644
632 -17 22 -33 42 -36 45 -4 3 -19 25 -35 49 -15 25 -36 54 -46 65 -11 11 -19
25 -19 32 0 7 -7 20 -16 28 -64 65 -254 470 -304 651 -87 314 -111 475 -111
749 0 113 5 234 11 268 18 105 32 172 40 198 4 14 16 52 25 85 97 338 307 475
620 406z" />
    <path d="M9930 11521 c0 -5 80 -11 178 -14 254 -9 391 -24 732 -81 97 -16 151
-27 230 -45 25 -6 74 -17 110 -25 56 -12 134 -33 245 -66 17 -5 55 -16 85 -24
121 -32 489 -168 615 -226 22 -10 76 -35 120 -55 105 -49 236 -114 307 -153
31 -18 76 -42 100 -55 117 -62 421 -254 493 -311 11 -9 65 -48 120 -88 55 -40
114 -85 130 -100 17 -15 33 -28 36 -28 3 0 17 -9 30 -21 13 -11 62 -52 108
-92 202 -173 448 -418 615 -612 95 -111 106 -124 151 -180 22 -28 48 -59 57
-69 10 -11 18 -23 18 -27 0 -4 6 -14 13 -21 7 -7 35 -44 62 -83 27 -38 52 -72
56 -75 3 -3 19 -25 34 -50 15 -25 31 -47 35 -50 4 -3 13 -16 20 -29 7 -14 17
-30 22 -35 19 -23 78 -118 78 -127 0 -5 5 -9 10 -9 6 0 10 -6 10 -14 0 -8 6
-21 13 -28 13 -15 28 -39 62 -103 12 -22 35 -62 52 -90 26 -45 196 -388 227
-460 7 -16 23 -50 34 -75 11 -25 24 -56 28 -70 3 -14 15 -45 26 -70 34 -77 36
-83 68 -175 76 -219 139 -435 176 -600 9 -38 20 -86 24 -105 48 -214 84 -450
112 -745 17 -172 17 -799 0 -970 -14 -144 -26 -247 -41 -345 -6 -36 -15 -99
-21 -140 -10 -70 -31 -176 -51 -260 -4 -19 -15 -66 -23 -105 -9 -38 -20 -87
-26 -107 -9 -35 -15 -56 -39 -140 -32 -113 -41 -139 -61 -193 -12 -33 -32 -89
-45 -125 -89 -253 -281 -678 -392 -870 -14 -25 -36 -63 -48 -85 -27 -49 -136
-226 -148 -240 -5 -5 -34 -49 -65 -96 -61 -93 -172 -251 -181 -259 -3 -3 -19
-23 -36 -45 -16 -22 -32 -42 -35 -45 -3 -3 -13 -15 -21 -27 -18 -26 -70 -88
-169 -202 -92 -106 -440 -456 -534 -537 -38 -32 -79 -68 -91 -79 -29 -27 -62
-54 -110 -90 -22 -16 -42 -32 -45 -35 -3 -4 -23 -19 -45 -35 -22 -17 -42 -32
-45 -35 -3 -3 -21 -17 -40 -30 -19 -13 -41 -30 -48 -37 -7 -7 -16 -13 -20 -13
-4 0 -20 -12 -37 -26 -16 -14 -45 -35 -65 -47 -19 -12 -41 -27 -48 -34 -7 -7
-17 -13 -21 -13 -4 0 -18 -9 -31 -20 -13 -11 -29 -20 -37 -20 -7 0 -13 -4 -13
-9 0 -5 -13 -14 -29 -21 -16 -6 -38 -19 -48 -28 -11 -9 -32 -24 -49 -33 -16
-9 -69 -40 -119 -69 -103 -60 -379 -202 -475 -244 -36 -16 -92 -41 -125 -56
-33 -15 -71 -31 -85 -35 -14 -4 -43 -16 -65 -25 -101 -44 -322 -122 -475 -167
-175 -51 -213 -61 -295 -79 -38 -8 -88 -19 -110 -25 -103 -24 -316 -60 -530
-89 -81 -11 -277 -30 -317 -30 -16 0 -28 -4 -28 -10 0 -7 908 -10 2705 -10
2705 0 2705 0 2705 5765 0 5765 0 5765 -2835 5765 -1616 0 -2835 -4 -2835 -9z" />
    <path d="M9420 11389 c-47 -4 -146 -13 -220 -19 -164 -14 -267 -27 -445 -59
-27 -5 -79 -14 -115 -20 -77 -13 -121 -23 -255 -57 -55 -14 -125 -32 -155 -39
-60 -14 -153 -42 -185 -56 -11 -4 -45 -16 -75 -25 -30 -9 -98 -32 -150 -51
-91 -34 -113 -43 -240 -100 -63 -28 -241 -116 -285 -141 -16 -10 -61 -35 -98
-56 -37 -21 -73 -44 -80 -51 -7 -7 -29 -20 -47 -30 -19 -10 -37 -21 -40 -24
-3 -4 -30 -24 -60 -46 -30 -22 -57 -42 -60 -45 -3 -3 -27 -23 -55 -45 -161
-129 -425 -434 -425 -492 0 -6 -3 -13 -8 -15 -12 -5 -82 -149 -82 -169 0 -10
-4 -21 -10 -24 -5 -3 -10 -16 -10 -29 0 -12 -4 -26 -8 -31 -47 -55 -59 -456
-18 -605 40 -150 124 -330 198 -425 4 -5 29 -39 55 -75 146 -197 427 -429 738
-605 102 -58 120 -66 362 -176 24 -10 45 -19 48 -19 3 0 24 -9 48 -19 61 -29
245 -92 362 -126 33 -9 71 -21 85 -25 14 -4 45 -13 70 -20 25 -7 56 -16 70
-21 14 -4 50 -13 80 -19 55 -10 121 -24 195 -41 22 -5 81 -16 130 -24 50 -8
119 -19 155 -25 519 -84 1195 -92 1745 -21 133 18 364 55 430 70 40 9 94 21
210 46 67 14 167 41 205 54 14 5 52 17 85 26 106 30 292 94 358 123 37 16 38
18 34 57 -36 310 -40 403 -24 562 66 642 278 885 692 794 139 -30 540 -235
622 -317 33 -33 48 -15 93 111 81 227 91 461 29 690 -6 22 -13 50 -16 63 -3
12 -9 25 -14 28 -5 3 -9 13 -9 23 0 20 -70 164 -82 169 -5 2 -8 9 -8 15 0 57
-297 401 -435 502 -22 17 -42 32 -45 35 -3 3 -30 23 -60 45 -30 22 -57 42 -60
46 -3 3 -21 14 -40 24 -19 10 -37 21 -40 26 -38 58 -623 332 -860 403 -30 9
-64 21 -75 25 -32 14 -125 42 -185 56 -30 7 -100 25 -155 39 -134 34 -178 44
-255 57 -36 6 -87 15 -115 20 -175 31 -280 45 -440 59 -71 5 -180 15 -241 20
-128 12 -690 11 -814 -1z m-441 -1968 c98 -46 125 -65 186 -127 267 -272 262
-800 -10 -1068 -26 -25 -51 -46 -55 -46 -5 0 -15 -6 -22 -13 -60 -58 -197 -87
-294 -62 -99 26 -284 159 -284 205 0 5 -6 15 -13 22 -115 118 -155 444 -84
695 78 276 383 485 576 394z m1997 -6 c141 -48 284 -208 335 -376 38 -125 42
-149 41 -274 0 -145 -16 -225 -72 -350 -81 -179 -272 -325 -425 -325 -104 0
-355 148 -355 209 0 4 -11 21 -25 37 -14 16 -25 34 -25 39 0 6 -11 31 -24 56
-12 26 -26 57 -30 70 -34 118 -38 142 -38 264 0 133 11 200 52 300 86 213 206
325 395 369 31 7 125 -3 171 -19z" />
  </g>
  <g transform="translate(0.000000,1153.000000) scale(0.100000,-0.100000)" fill="#074268" stroke="none">
    <path d="M9565 11519 c-202 -8 -401 -28 -590 -58 -206 -32 -290 -48 -380 -70
-22 -5 -71 -16 -110 -24 -61 -13 -146 -36 -250 -67 -16 -5 -55 -16 -85 -24
-57 -15 -329 -108 -365 -125 -11 -5 -63 -26 -115 -46 -91 -36 -126 -51 -257
-111 -91 -42 -241 -118 -323 -163 -41 -23 -87 -47 -102 -54 -16 -6 -28 -15
-28 -19 0 -4 -4 -8 -9 -8 -19 0 -384 -230 -443 -279 -7 -6 -58 -43 -113 -83
-55 -40 -102 -75 -105 -78 -3 -3 -21 -18 -40 -33 -86 -69 -107 -86 -188 -157
-243 -212 -508 -483 -677 -693 -47 -58 -65 -80 -90 -108 -13 -15 -28 -36 -34
-47 -6 -11 -17 -26 -24 -34 -7 -7 -35 -44 -62 -83 -27 -38 -52 -72 -56 -75 -3
-3 -18 -25 -34 -49 -15 -25 -31 -49 -36 -55 -19 -23 -119 -178 -119 -184 0 -4
-23 -41 -50 -82 -27 -41 -50 -78 -50 -81 0 -4 -17 -36 -38 -70 -37 -63 -158
-305 -222 -444 -17 -38 -40 -88 -50 -110 -10 -22 -22 -51 -26 -65 -3 -14 -15
-45 -26 -70 -34 -77 -36 -83 -68 -175 -36 -104 -54 -160 -75 -230 -8 -27 -21
-70 -29 -95 -19 -63 -41 -146 -71 -275 -53 -225 -58 -253 -80 -395 -67 -444
-79 -618 -72 -1025 6 -347 17 -485 56 -745 5 -30 14 -91 20 -135 15 -105 22
-141 76 -370 25 -109 40 -166 55 -215 4 -14 18 -59 30 -100 116 -388 322 -879
481 -1145 16 -27 34 -60 39 -73 5 -13 27 -49 48 -80 21 -31 51 -79 67 -107 16
-27 33 -54 38 -60 5 -5 34 -49 65 -96 61 -93 172 -251 181 -259 3 -3 20 -23
36 -45 16 -22 36 -48 45 -58 22 -27 41 -51 75 -93 119 -149 493 -534 640 -660
38 -32 76 -66 85 -74 15 -13 53 -44 183 -148 23 -18 49 -39 57 -45 8 -7 31
-23 50 -37 19 -13 38 -29 42 -35 11 -15 651 -13 813 3 144 13 257 27 355 41
108 16 252 40 305 50 120 24 162 32 200 41 22 5 72 16 110 24 106 22 343 84
520 136 17 5 50 14 75 20 25 7 54 15 65 20 11 5 49 18 85 29 230 74 547 184
557 194 3 4 13 7 22 7 9 0 29 7 45 15 15 8 32 15 37 15 5 0 37 13 71 29 35 15
74 31 88 35 29 8 48 16 110 44 25 11 65 28 90 38 25 10 78 33 118 51 41 18 75
33 77 33 3 0 29 11 60 25 30 14 80 36 110 50 211 95 679 326 683 337 2 5 9 8
15 8 12 0 41 14 177 89 41 23 95 52 120 64 25 12 47 24 50 27 9 9 64 40 110
63 25 12 47 25 50 28 3 3 41 26 85 50 113 64 129 73 135 79 3 3 19 12 35 21
31 17 116 67 195 116 25 15 63 39 85 51 78 46 140 87 143 94 2 5 8 8 13 8 8 0
177 107 189 120 7 7 37 26 81 50 21 10 43 25 50 33 8 7 41 31 74 52 33 22 66
45 73 52 7 7 19 13 27 13 7 0 15 4 17 8 2 4 41 34 88 67 47 33 91 65 98 72 8
7 23 18 35 24 11 7 26 16 31 21 6 5 41 30 77 56 91 64 198 144 249 185 8 7 44
34 80 60 36 26 79 59 95 72 17 14 49 39 71 57 71 56 115 91 178 143 34 27 66
53 71 58 46 35 221 184 251 213 12 11 44 38 70 60 27 21 63 53 80 69 16 17 73
68 125 115 164 147 569 553 569 571 0 13 -15 18 -82 23 -46 4 -103 12 -128 17
-92 21 -136 31 -160 39 -14 4 -52 16 -85 25 -88 25 -123 37 -197 69 -20 9 -41
16 -47 16 -13 0 -274 122 -331 154 -14 8 -38 21 -55 29 -34 15 -77 39 -85 47
-3 3 -19 12 -35 21 -50 27 -190 112 -195 119 -3 4 -39 29 -80 56 -41 27 -84
57 -94 66 -11 10 -23 18 -27 18 -4 0 -14 6 -21 13 -7 6 -38 31 -69 54 -31 23
-62 47 -70 55 -8 8 -32 27 -54 43 -22 17 -49 39 -61 50 -12 11 -52 46 -90 77
-125 103 -436 429 -490 513 -18 28 -37 53 -59 79 -120 137 -310 539 -395 836
-37 131 -50 186 -50 214 0 30 -16 33 -63 12 -52 -24 -245 -90 -352 -121 -33
-9 -71 -21 -85 -26 -38 -13 -138 -40 -205 -54 -116 -25 -170 -37 -210 -46 -65
-15 -294 -52 -430 -70 -530 -69 -1220 -60 -1725 21 -36 6 -105 17 -155 25 -82
13 -118 20 -225 45 -19 4 -62 13 -95 19 -33 7 -71 16 -85 20 -14 5 -45 14 -70
21 -25 7 -56 16 -70 20 -14 4 -52 16 -85 25 -117 34 -301 97 -362 126 -24 10
-45 19 -48 19 -3 0 -24 9 -48 19 -242 110 -260 118 -362 176 -311 176 -592
408 -738 605 -26 36 -51 70 -55 75 -73 95 -157 275 -198 425 -40 146 -28 531
18 584 4 6 8 20 8 32 0 13 5 26 10 29 6 3 10 14 10 24 0 20 70 164 82 169 5 2
8 9 8 15 0 58 264 363 425 492 28 22 52 42 55 45 3 3 30 23 60 45 30 22 57 42
60 46 3 3 21 14 40 24 18 10 40 23 47 30 7 7 43 30 80 51 37 21 82 46 98 56
44 25 222 113 285 141 127 57 149 66 240 100 52 19 120 42 150 51 30 9 64 21
75 25 32 14 125 42 185 56 30 7 100 25 155 39 134 34 178 44 255 57 36 6 88
15 115 20 175 31 280 45 440 59 72 5 180 15 241 20 60 6 236 10 389 10 153 0
329 -4 389 -10 61 -5 170 -15 241 -20 160 -14 265 -28 440 -59 28 -5 79 -14
115 -20 77 -13 121 -23 255 -57 55 -14 125 -32 155 -39 60 -14 153 -42 185
-56 11 -4 45 -16 75 -25 237 -71 822 -345 860 -403 3 -5 21 -16 40 -26 19 -10
37 -21 40 -24 3 -4 30 -24 60 -46 30 -22 57 -42 60 -45 3 -3 23 -18 45 -35
138 -101 435 -445 435 -502 0 -6 3 -13 8 -15 12 -5 82 -149 82 -169 0 -10 4
-20 9 -23 5 -3 11 -16 14 -28 3 -13 10 -41 16 -63 69 -253 46 -522 -65 -762
-17 -38 -18 -38 -37 -19 -31 32 -226 149 -341 205 -208 102 -270 120 -431 128
-155 7 -155 7 -187 -162 -17 -94 -17 -553 0 -650 7 -38 18 -99 24 -135 6 -36
18 -90 26 -120 7 -30 18 -75 23 -99 9 -44 24 -95 39 -136 5 -11 13 -36 20 -55
7 -19 16 -44 20 -55 5 -11 13 -33 18 -50 35 -108 244 -513 282 -545 3 -3 23
-32 45 -65 21 -33 41 -62 44 -65 4 -3 19 -23 36 -45 111 -149 378 -417 586
-586 109 -89 130 -106 179 -144 28 -22 61 -48 72 -58 12 -9 24 -17 28 -17 3 0
15 -8 26 -18 11 -10 53 -41 94 -67 41 -27 77 -52 80 -55 3 -4 50 -33 104 -66
54 -32 120 -71 145 -87 25 -15 66 -37 91 -49 25 -12 47 -25 50 -28 3 -3 21
-13 40 -22 19 -9 79 -37 133 -62 54 -25 100 -46 102 -46 3 0 33 -13 67 -29 79
-36 245 -92 388 -131 55 -15 189 -38 260 -45 105 -10 120 -14 120 -36 0 -30
28 -22 35 9 3 15 6 82 7 148 1 119 1 119 61 193 60 74 60 74 53 165 -28 379
-66 661 -126 926 -4 19 -15 67 -24 105 -37 165 -100 381 -176 600 -32 92 -34
98 -68 175 -11 25 -23 56 -26 70 -4 14 -17 45 -28 70 -11 25 -27 59 -34 75
-31 72 -201 415 -227 460 -17 28 -40 68 -52 90 -34 64 -49 88 -62 103 -7 7
-13 20 -13 28 0 8 -4 14 -10 14 -5 0 -10 4 -10 9 0 9 -59 104 -78 127 -5 5
-15 21 -22 35 -7 13 -16 26 -20 29 -4 3 -20 25 -35 50 -15 25 -31 47 -34 50
-4 3 -29 37 -56 75 -27 39 -55 76 -62 83 -7 7 -13 17 -13 21 0 4 -8 16 -18 27
-9 10 -35 41 -57 69 -45 56 -56 69 -151 180 -167 194 -413 439 -615 612 -46
40 -95 81 -108 92 -13 12 -27 21 -30 21 -3 0 -19 13 -36 28 -16 15 -75 60
-130 100 -55 40 -109 79 -120 88 -72 57 -376 249 -493 311 -24 13 -69 37 -100
55 -71 39 -202 104 -307 153 -44 20 -98 45 -120 55 -126 58 -494 194 -615 226
-30 8 -68 19 -85 24 -111 33 -189 54 -245 66 -36 8 -85 19 -110 25 -98 23
-174 37 -375 69 -358 57 -728 77 -1140 59z m3323 -2665 c78 -41 212 -130 267
-175 126 -105 257 -223 317 -286 81 -84 136 -145 166 -182 20 -25 40 -48 44
-51 12 -9 128 -163 128 -169 0 -4 8 -16 18 -27 44 -50 122 -210 129 -265 9
-62 -31 -94 -97 -77 -45 12 -184 78 -188 89 -2 5 -8 9 -13 9 -6 0 -15 5 -22
10 -7 6 -37 27 -67 47 -30 20 -57 39 -60 43 -3 3 -23 19 -44 36 -22 16 -49 38
-61 49 -12 11 -46 40 -75 65 -29 25 -96 88 -149 141 -521 521 -694 958 -293
743z" />
    <path d="M8785 9441 c-362 -73 -550 -627 -352 -1041 17 -36 37 -71 44 -78 7
-7 13 -17 13 -22 0 -46 185 -179 284 -205 105 -27 253 2 314 62 7 7 17 13 22
13 17 0 104 96 146 161 219 342 110 919 -201 1068 -27 13 -57 28 -67 32 -25
12 -158 19 -203 10z" />
    <path d="M10795 9444 c-190 -44 -309 -155 -395 -369 -42 -103 -52 -167 -52
-310 0 -133 3 -153 38 -274 4 -13 18 -44 30 -70 13 -25 24 -50 24 -56 0 -5 11
-23 25 -39 14 -16 25 -33 25 -37 0 -43 185 -171 286 -198 183 -49 414 93 514
314 57 128 72 204 73 360 0 136 -3 156 -42 284 -76 250 -331 441 -526 395z" />
    <path d="M444 9271 c-69 -30 -96 -555 -44 -861 5 -30 14 -84 19 -120 6 -36 15
-81 21 -100 5 -19 21 -78 36 -130 37 -138 85 -268 156 -419 26 -57 48 -107 48
-112 0 -5 4 -9 8 -9 5 0 14 -16 22 -35 8 -19 17 -35 22 -35 4 0 8 -4 8 -9 0
-5 17 -37 38 -71 20 -33 42 -69 47 -78 13 -24 107 -156 115 -162 3 -3 17 -21
30 -40 14 -19 32 -42 40 -51 8 -8 33 -37 55 -63 156 -183 452 -452 709 -643
61 -46 116 -87 121 -91 6 -4 48 -32 95 -62 47 -30 87 -57 90 -61 7 -10 160
-99 170 -99 5 0 10 -3 12 -7 5 -12 49 -36 248 -134 102 -50 193 -95 202 -100
10 -5 22 -9 28 -9 5 0 34 -11 63 -24 29 -14 85 -35 123 -47 38 -12 94 -29 124
-39 92 -29 131 -39 220 -54 74 -13 240 -36 260 -36 4 0 5 -11 2 -25 -6 -34 16
-32 25 3 13 46 9 351 -6 432 -12 68 -22 110 -66 279 -18 66 -53 170 -65 193
-6 10 -10 23 -10 29 0 37 -160 377 -260 554 -32 55 -66 116 -76 135 -10 19
-25 40 -32 48 -7 8 -20 28 -29 45 -9 18 -19 34 -22 37 -4 3 -17 21 -29 40 -11
20 -30 47 -42 59 -11 13 -20 27 -20 31 0 4 -13 25 -30 46 -42 54 -42 54 -74
99 -17 22 -32 42 -36 45 -3 3 -18 23 -35 45 -36 49 -54 69 -179 209 -111 123
-276 289 -440 441 -59 55 -124 116 -145 135 -31 29 -94 85 -161 142 -31 27
-149 125 -185 153 -21 17 -52 41 -69 55 -33 27 -124 95 -166 123 -87 60 -200
133 -234 152 -23 12 -57 31 -77 42 -66 38 -74 42 -129 66 -106 45 -165 67
-215 78 -65 15 -254 21 -281 10z m492 -392 c27 -13 51 -27 52 -31 2 -4 8 -8
13 -8 20 0 247 -158 295 -204 6 -6 33 -29 60 -51 41 -34 307 -297 363 -360 49
-55 125 -152 163 -208 23 -34 45 -64 48 -67 4 -3 24 -36 45 -75 21 -38 41 -74
45 -80 14 -18 30 -116 24 -140 -12 -50 -115 -43 -216 15 -10 6 -28 16 -40 23
-13 6 -25 14 -28 17 -3 3 -28 21 -57 39 -29 18 -69 46 -90 62 -21 16 -49 38
-63 48 -14 11 -34 28 -45 38 -12 10 -54 47 -95 83 -139 121 -318 310 -423 446
-281 363 -304 570 -51 453z" />
    <path d="M15259 3888 c-7 -13 -18 -28 -24 -35 -14 -13 -75 -155 -75 -172 0 -6
-4 -19 -9 -29 -15 -27 -51 -111 -51 -118 0 -3 -11 -30 -25 -60 -14 -30 -37
-80 -51 -111 -38 -87 -173 -352 -184 -363 -3 -3 -17 -27 -31 -55 -50 -96 -64
-120 -71 -123 -5 -2 -8 -8 -8 -13 0 -10 -145 -237 -208 -324 -23 -33 -49 -69
-57 -80 -8 -11 -21 -29 -29 -40 -9 -11 -37 -49 -63 -85 -46 -63 -180 -228
-212 -262 -9 -9 -36 -40 -61 -69 -78 -92 -243 -261 -380 -393 -30 -28 -83 -75
-255 -225 -17 -14 -49 -39 -70 -56 -22 -16 -45 -34 -51 -40 -6 -5 -23 -19 -38
-30 -16 -11 -33 -25 -40 -30 -6 -6 -47 -36 -91 -68 -44 -31 -89 -63 -100 -71
-11 -8 -51 -35 -90 -60 -38 -25 -75 -50 -82 -56 -7 -5 -16 -10 -22 -10 -5 0
-11 -3 -13 -7 -3 -8 -120 -81 -208 -131 -25 -14 -63 -36 -85 -48 -114 -66
-595 -294 -619 -294 -4 0 -28 -9 -54 -21 -26 -12 -58 -26 -72 -31 -14 -6 -32
-14 -40 -18 -9 -4 -31 -11 -50 -15 -19 -4 -39 -11 -45 -14 -14 -11 -327 -107
-407 -127 -16 -3 -28 -12 -28 -19 0 -15 5 -14 220 48 153 45 374 123 475 167
22 9 51 21 65 25 14 4 52 20 85 35 33 15 89 40 125 56 96 42 372 184 475 244
50 29 103 60 119 69 17 9 38 24 49 33 10 9 32 22 48 28 16 7 29 16 29 21 0 5
6 9 13 9 8 0 24 9 37 20 13 11 27 20 31 20 4 0 14 6 21 13 7 7 29 22 48 34 20
12 49 33 65 47 17 14 33 26 37 26 4 0 13 6 20 13 7 7 29 24 48 37 19 13 37 27
40 30 3 3 23 18 45 35 22 16 42 31 45 35 3 3 23 19 45 35 48 36 81 63 110 90
12 11 53 47 91 79 94 81 442 431 534 537 99 114 151 176 169 202 8 12 18 24
21 27 3 3 19 23 35 45 17 22 33 42 36 45 9 8 120 166 181 259 31 47 60 91 65
96 12 14 121 191 148 240 12 22 34 60 48 85 113 196 313 641 392 873 23 68 12
98 -16 45z" />
    <path d="M6530 1041 c0 -4 30 -28 68 -52 37 -24 73 -49 80 -56 7 -7 20 -13 28
-13 8 0 14 -4 14 -9 0 -5 13 -14 29 -21 16 -6 38 -19 48 -28 11 -9 32 -24 49
-33 16 -9 70 -40 119 -69 50 -29 138 -77 198 -107 59 -31 107 -60 107 -64 0
-5 29 -9 65 -9 102 0 86 19 -90 104 -85 42 -156 76 -158 76 -3 0 -41 20 -86
45 -45 25 -86 45 -92 45 -6 0 -24 9 -40 21 -16 11 -57 35 -91 53 -115 60 -203
109 -212 117 -13 12 -36 12 -36 0z" />
    <path d="M11208 183 c-10 -2 -18 -9 -18 -14 0 -15 53 -6 58 9 4 12 -8 14 -40
5z" />
    <path d="M11073 153 c-7 -2 -13 -9 -13 -14 0 -15 53 -6 58 9 4 12 -21 15 -45
5z" />
    <path d="M10983 133 c-7 -2 -13 -9 -13 -14 0 -15 53 -6 58 9 4 12 -21 15 -45
5z" />
    <path d="M10888 113 c-24 -6 -23 -23 1 -23 26 0 51 10 51 21 0 9 -22 10 -52 2z" />
  </g>
  <g transform="translate(0.000000,1153.000000) scale(0.100000,-0.100000)" fill="#0a3953" stroke="none">
    <path d="M406 9224 c-6 -24 -2 -43 8 -33 11 10 17 59 8 59 -5 0 -13 -12 -16
-26z" />
    <path d="M730 7445 c0 -8 5 -15 10 -15 6 0 10 -7 10 -15 0 -8 5 -15 11 -15 6
0 8 6 5 13 -3 6 -9 20 -12 30 -8 21 -24 23 -24 2z" />
    <path d="M12200 7117 c0 -15 29 -57 30 -42 0 6 -3 20 -6 33 -7 24 -24 31 -24
9z" />
    <path d="M13650 6356 c0 -9 6 -16 14 -16 8 0 16 -5 18 -11 2 -7 10 -10 18 -7
9 3 3 12 -18 27 -26 18 -32 19 -32 7z" />
    <path d="M2210 6041 c0 -6 7 -11 15 -11 8 0 15 -4 15 -10 0 -5 7 -10 15 -10
21 0 19 16 -2 24 -10 3 -24 9 -30 12 -7 3 -13 1 -13 -5z" />
    <path d="M15569 5953 c-86 -96 -101 -122 -99 -176 6 -135 0 -207 -15 -201 -8
4 -15 2 -15 -4 0 -6 6 -12 13 -15 9 -3 9 -7 1 -18 -6 -8 -14 -29 -17 -47 -28
-146 -196 -256 -409 -269 -71 -4 -108 -10 -108 -18 0 -13 -431 -441 -569 -565
-52 -47 -109 -98 -125 -115 -17 -16 -53 -48 -80 -69 -26 -22 -58 -49 -70 -60
-30 -29 -205 -178 -251 -213 -5 -5 -37 -31 -71 -58 -63 -52 -107 -87 -178
-143 -22 -18 -54 -43 -71 -57 -16 -13 -59 -46 -95 -72 -36 -26 -72 -53 -80
-60 -51 -41 -158 -121 -249 -185 -36 -26 -71 -51 -77 -56 -5 -5 -20 -14 -31
-21 -12 -6 -27 -17 -35 -24 -7 -7 -51 -39 -98 -72 -47 -33 -86 -63 -88 -67 -2
-4 -10 -8 -17 -8 -8 0 -20 -6 -27 -13 -7 -7 -40 -30 -73 -52 -33 -21 -66 -45
-74 -52 -7 -8 -29 -23 -50 -33 -44 -24 -74 -43 -81 -50 -12 -13 -181 -120
-189 -120 -5 0 -11 -3 -13 -8 -3 -7 -65 -48 -143 -94 -22 -12 -60 -36 -85 -51
-79 -49 -164 -99 -195 -116 -16 -9 -32 -18 -35 -21 -6 -6 -22 -15 -135 -79
-44 -24 -82 -47 -85 -50 -3 -3 -25 -16 -50 -28 -46 -23 -101 -54 -110 -63 -3
-3 -25 -15 -50 -27 -25 -12 -79 -41 -120 -64 -136 -75 -165 -89 -177 -89 -6 0
-13 -3 -15 -8 -4 -11 -472 -242 -683 -337 -30 -14 -80 -36 -110 -50 -31 -14
-57 -25 -60 -25 -2 0 -36 -15 -77 -33 -40 -18 -93 -41 -118 -51 -25 -10 -65
-27 -90 -38 -62 -28 -81 -36 -110 -44 -14 -4 -53 -20 -88 -35 -34 -16 -66 -29
-71 -29 -5 0 -22 -7 -37 -15 -16 -8 -36 -15 -45 -15 -9 0 -19 -3 -22 -7 -10
-10 -327 -120 -557 -194 -36 -11 -74 -24 -85 -29 -11 -5 -40 -13 -65 -20 -25
-6 -58 -15 -75 -20 -177 -52 -414 -114 -520 -136 -38 -8 -88 -19 -110 -24 -22
-5 -64 -14 -92 -20 -482 -95 -774 -125 -1234 -125 -335 0 -335 0 -290 -30 26
-16 50 -29 54 -30 4 0 12 -7 17 -15 5 -8 10 -11 10 -7 0 5 30 -9 68 -29 37
-20 95 -52 130 -70 34 -18 75 -42 91 -53 16 -12 34 -21 40 -21 6 0 47 -20 92
-45 45 -25 83 -45 86 -45 8 0 298 -144 323 -160 22 -15 56 -16 315 -9 498 13
1041 61 1445 129 36 6 108 17 160 25 52 8 115 19 140 24 25 5 72 14 105 21 33
7 78 16 100 21 22 4 67 13 100 19 56 10 267 59 345 80 19 6 53 14 75 19 22 5
74 19 115 31 41 12 94 25 118 30 24 6 73 19 110 31 155 50 179 58 212 64 19 4
41 11 50 16 8 5 83 31 165 58 134 44 195 65 260 91 11 4 54 20 95 35 41 15 80
31 85 35 6 4 22 10 38 14 15 4 51 17 80 30 130 59 146 66 156 66 5 0 26 9 48
19 21 11 68 34 106 50 154 71 209 96 342 162 77 38 185 94 240 125 55 30 111
60 125 67 14 6 27 14 30 17 3 3 14 10 25 16 105 57 154 86 240 139 55 34 114
70 132 78 17 9 37 22 45 30 7 7 36 26 63 41 28 16 52 32 55 35 3 4 39 29 80
56 41 28 84 58 94 67 11 10 23 18 26 18 4 0 16 8 28 18 11 9 46 35 77 57 32
22 72 51 90 65 18 14 45 34 61 45 15 11 32 25 38 30 6 6 29 24 51 40 22 17 42
32 45 35 3 3 21 18 40 34 109 89 131 107 315 269 44 39 166 157 270 262 174
173 239 243 381 406 85 97 99 113 129 154 17 22 32 42 35 45 4 3 19 23 36 45
16 22 34 45 39 51 14 16 57 72 75 99 29 44 134 190 146 202 6 6 17 25 24 42 7
17 16 31 21 31 5 0 9 7 9 15 0 8 3 15 8 15 4 0 20 25 37 55 16 30 33 55 37 55
4 0 8 4 8 8 0 9 95 171 106 181 7 7 7 5 -36 -179 -7 -30 -45 -173 -70 -265
-15 -58 -72 -231 -98 -298 -27 -71 -25 -101 3 -46 18 33 27 46 58 81 44 47
136 373 207 728 82 413 114 747 108 1128 -3 233 -3 233 -29 205z" />
    <path d="M2520 5875 c0 -7 7 -16 16 -19 40 -15 47 3 9 21 -20 9 -25 8 -25 -2z" />
    <path d="M15030 5641 c0 -5 10 -11 23 -15 36 -9 43 -6 23 9 -22 17 -46 20 -46
6z" />
    <path d="M14544 5275 c22 -17 46 -20 46 -6 0 5 -10 11 -22 15 -37 9 -44 6 -24
-9z" />
    <path d="M11620 310 c-11 -7 -12 -12 -3 -21 9 -9 15 -8 27 4 27 26 10 38 -24
17z" />
    <path d="M11263 203 c-15 -6 -17 -33 -3 -33 6 0 10 5 10 11 0 6 7 9 15 5 9 -3
15 0 15 9 0 15 -14 18 -37 8z" />
    <path d="M10868 113 c-29 -7 -20 -22 12 -21 18 1 30 6 30 15 0 13 -10 15 -42
6z" />
  </g>
  <g transform="translate(0.000000,1153.000000) scale(0.100000,-0.100000)" fill="#0e293b" stroke="none">
    <path d="M15441 4663 c-1 -6 -30 -59 -66 -118 -36 -59 -65 -111 -65 -116 0 -5
-4 -9 -8 -9 -4 0 -21 -25 -37 -55 -17 -30 -33 -55 -37 -55 -5 0 -8 -7 -8 -15
0 -8 -4 -15 -9 -15 -5 0 -14 -14 -21 -31 -7 -17 -18 -36 -24 -42 -12 -12 -117
-158 -146 -202 -18 -27 -61 -83 -75 -99 -5 -6 -23 -29 -39 -51 -17 -22 -32
-42 -36 -45 -3 -3 -18 -23 -35 -45 -30 -41 -44 -57 -129 -154 -142 -163 -207
-233 -381 -406 -104 -105 -226 -223 -270 -262 -184 -162 -206 -180 -315 -269
-19 -16 -37 -31 -40 -34 -3 -3 -23 -18 -45 -35 -22 -16 -45 -34 -51 -40 -6 -5
-23 -19 -38 -30 -16 -11 -43 -31 -61 -45 -18 -14 -58 -43 -90 -65 -31 -22 -66
-48 -77 -57 -12 -10 -24 -18 -28 -18 -3 0 -15 -8 -26 -18 -10 -9 -53 -39 -94
-67 -41 -27 -77 -52 -80 -56 -3 -3 -27 -19 -55 -35 -27 -15 -56 -34 -63 -41
-8 -8 -28 -21 -45 -30 -18 -8 -77 -44 -132 -78 -86 -53 -135 -82 -240 -139
-11 -6 -22 -13 -25 -16 -3 -3 -16 -11 -30 -17 -14 -7 -70 -37 -125 -67 -55
-31 -163 -87 -240 -125 -133 -66 -188 -91 -342 -162 -38 -16 -85 -39 -106 -50
-22 -10 -43 -19 -48 -19 -10 0 -26 -7 -156 -66 -29 -13 -65 -26 -80 -30 -16
-4 -32 -10 -38 -14 -5 -4 -44 -20 -85 -35 -41 -15 -84 -31 -95 -35 -65 -26
-126 -47 -260 -91 -82 -27 -157 -53 -165 -58 -9 -5 -31 -12 -50 -16 -33 -6
-57 -14 -212 -64 -37 -12 -86 -25 -110 -31 -24 -5 -77 -18 -118 -30 -41 -12
-93 -26 -115 -31 -22 -5 -56 -13 -75 -19 -78 -21 -289 -70 -345 -80 -33 -6
-78 -15 -100 -19 -22 -5 -67 -14 -100 -21 -33 -7 -80 -16 -105 -21 -25 -5 -88
-16 -140 -24 -52 -8 -124 -19 -160 -25 -112 -19 -191 -30 -325 -45 -328 -39
-461 -51 -700 -65 -93 -5 -183 -12 -198 -15 -16 -3 -168 -5 -338 -5 -198 -1
-309 -4 -309 -11 0 -10 90 -54 247 -119 54 -23 106 -45 115 -50 10 -6 22 -10
28 -10 6 0 29 -9 53 -19 23 -11 65 -27 92 -36 28 -9 59 -21 70 -26 29 -12 190
-64 260 -84 33 -9 71 -21 85 -25 14 -4 44 -13 68 -19 23 -6 59 -16 80 -21 34
-9 165 -39 267 -61 22 -5 83 -15 135 -24 52 -8 131 -22 175 -30 105 -20 221
-34 380 -45 145 -10 858 -13 868 -4 6 6 136 16 186 15 12 -1 27 2 33 5 5 4 29
8 51 10 70 5 120 11 172 20 28 4 53 7 58 6 4 -1 7 2 7 6 0 4 15 8 33 9 43 3
100 9 110 13 4 1 12 4 17 5 6 1 11 4 13 5 1 1 21 3 44 5 24 1 49 8 57 14 8 7
24 10 35 6 11 -3 33 1 50 9 16 9 37 13 45 10 9 -3 16 -1 16 4 0 6 11 9 24 6
13 -2 36 3 52 10 15 8 32 12 37 9 5 -3 13 0 17 7 5 8 21 14 37 15 15 1 41 7
56 14 16 6 32 9 37 6 5 -3 10 0 12 6 2 6 19 13 38 14 19 2 37 5 40 6 3 1 10 3
15 3 6 1 20 7 32 14 12 7 26 11 30 10 4 -1 18 3 31 10 12 7 27 10 32 7 6 -4
13 0 16 8 3 9 16 14 30 12 13 -1 29 4 36 12 6 8 17 12 24 9 7 -3 16 -1 20 5 3
6 12 8 19 5 8 -3 19 2 26 10 7 8 18 13 25 10 7 -3 18 2 25 10 6 8 17 13 23 11
6 -3 18 1 26 8 23 18 100 46 111 40 5 -4 9 -2 9 2 0 5 15 16 33 24 36 19 119
54 127 55 13 1 85 40 88 47 2 4 11 7 20 8 10 0 76 31 147 69 72 38 154 81 183
96 28 15 52 31 52 36 0 4 6 8 14 8 13 0 174 95 203 120 7 5 17 10 23 10 5 0
10 4 10 9 0 5 14 14 30 21 17 7 34 18 38 25 4 7 25 22 47 33 22 11 49 28 60
37 11 8 50 37 86 63 112 80 121 86 145 110 13 12 28 22 34 22 5 0 10 3 10 8 0
4 17 18 37 32 20 14 54 42 75 63 22 20 41 37 45 37 6 0 145 122 213 187 131
124 301 300 380 392 25 28 54 62 66 74 11 12 36 42 55 67 19 24 41 52 49 61
28 30 55 64 102 129 26 36 52 70 58 77 5 7 10 15 10 18 0 3 10 17 23 30 23 25
78 104 149 215 23 36 59 91 80 122 21 32 38 62 38 68 0 5 4 10 8 10 4 0 13 12
19 28 10 24 23 48 55 102 5 8 11 23 14 33 4 9 11 17 17 17 6 0 7 3 4 7 -4 3
-2 12 4 20 7 7 19 27 28 44 45 86 122 240 141 284 13 28 35 78 51 112 16 34
29 65 29 69 0 8 33 84 51 116 5 10 9 24 9 32 0 7 8 33 19 57 23 54 34 82 35
89 1 3 9 25 18 50 19 53 77 232 88 275 30 110 63 237 72 275 5 25 14 63 19 85
18 76 30 148 25 159 -3 8 -5 8 -5 -1z" />
  </g>
  <g transform="translate(0.000000,1153.000000) scale(0.100000,-0.100000)" fill="#0f273d" stroke="none">
    <path d="M415 9263 c-137 -33 -269 -197 -330 -408 -9 -33 -21 -71 -25 -85 -8
-26 -22 -93 -40 -199 -15 -82 -15 -468 0 -568 19 -139 30 -192 71 -353 47
-191 87 -300 182 -500 43 -89 132 -246 151 -266 9 -8 16 -21 16 -28 0 -7 8
-21 19 -32 10 -11 31 -40 46 -65 16 -24 31 -46 35 -49 3 -3 19 -23 36 -45 115
-157 421 -457 644 -632 8 -6 33 -27 56 -45 23 -18 59 -45 80 -61 21 -15 71
-50 109 -77 39 -27 75 -53 80 -58 6 -4 29 -19 53 -32 23 -13 42 -27 42 -31 0
-4 9 -11 21 -14 11 -4 46 -24 77 -44 31 -21 71 -44 87 -52 37 -19 78 -42 85
-49 7 -7 200 -102 270 -133 30 -14 76 -34 102 -46 26 -11 51 -21 56 -21 5 0
37 -12 73 -26 35 -15 87 -33 114 -41 104 -30 116 -33 153 -43 142 -38 192 -44
367 -44 125 -1 192 3 220 12 60 20 126 52 142 68 8 7 20 17 27 21 19 12 86
108 86 125 0 8 5 19 11 25 22 22 18 113 -5 115 -84 6 -185 19 -248 33 -13 2
-43 9 -68 14 -47 10 -92 22 -147 39 -17 6 -34 8 -37 4 -3 -3 -6 0 -6 6 0 7 -7
12 -15 12 -22 0 -129 37 -193 66 -29 13 -56 24 -61 24 -5 0 -22 7 -37 15 -16
8 -37 15 -46 15 -10 0 -18 3 -18 8 0 7 -73 43 -99 48 -8 1 -17 7 -20 12 -6 9
-50 26 -61 24 -3 0 -14 7 -25 17 -11 9 -42 29 -70 42 -72 37 -99 53 -107 64
-4 6 -8 6 -8 2 0 -4 -19 5 -43 21 -23 16 -56 36 -74 45 -17 9 -37 22 -45 30
-7 7 -51 37 -98 66 -47 30 -87 57 -90 60 -9 10 -69 51 -75 51 -4 0 -12 6 -19
13 -7 6 -28 23 -46 37 -44 33 -144 113 -150 120 -3 3 -18 16 -35 29 -142 109
-555 512 -555 541 0 5 -6 13 -13 17 -7 4 -24 24 -37 43 -24 34 -44 59 -65 84
-11 12 -67 96 -75 111 -3 6 -25 42 -50 80 -25 39 -44 73 -42 78 1 4 -2 7 -8 7
-5 0 -10 6 -10 14 0 7 -7 19 -15 26 -8 7 -12 16 -9 21 3 5 0 9 -5 9 -6 0 -11
4 -11 9 0 11 -71 163 -80 171 -3 3 -6 12 -8 20 -2 8 -10 29 -17 45 -7 17 -19
48 -27 70 -7 22 -17 43 -23 47 -5 4 -7 8 -3 8 4 0 1 17 -6 38 -8 20 -27 82
-41 137 -15 55 -31 109 -35 120 -5 11 -12 42 -15 68 -4 27 -9 59 -11 70 -5 22
-8 36 -19 107 -3 19 -8 53 -12 75 -10 54 -9 511 1 555 4 19 9 51 12 70 9 61 9
65 17 78 5 6 6 12 2 12 -3 0 -1 9 5 20 6 11 9 19 8 19 -2 -1 -12 -3 -23 -6z" />
    <path d="M12269 9242 c-301 -144 -426 -738 -304 -1447 10 -61 33 -150 46 -180
5 -11 11 -31 13 -45 10 -50 83 -259 95 -270 4 -3 7 -12 9 -20 6 -28 55 -135
70 -152 8 -10 12 -18 9 -18 -4 0 7 -21 22 -47 16 -27 43 -75 59 -108 17 -33
40 -69 50 -81 11 -11 28 -36 37 -55 10 -19 26 -41 36 -50 11 -9 19 -21 19 -28
0 -6 4 -11 8 -11 5 0 13 -10 19 -22 28 -62 361 -414 497 -526 38 -31 78 -66
90 -77 12 -11 39 -33 61 -49 22 -17 42 -33 45 -36 3 -3 34 -28 70 -55 36 -28
71 -56 78 -62 7 -7 18 -13 24 -13 6 0 18 -8 27 -18 18 -20 94 -72 104 -72 6 0
32 -19 61 -45 12 -12 151 -97 201 -124 16 -9 33 -20 37 -26 4 -5 8 -6 8 -2 0
4 15 -3 33 -16 17 -13 53 -32 80 -41 26 -10 47 -22 47 -27 0 -5 9 -9 20 -9 11
0 20 -4 20 -10 0 -5 6 -10 14 -10 7 0 38 -13 68 -29 31 -17 58 -27 62 -24 3 4
6 2 6 -3 0 -10 69 -40 83 -36 4 1 7 -3 7 -8 0 -6 7 -10 16 -10 9 0 32 -7 52
-16 63 -27 76 -32 117 -45 22 -6 58 -18 80 -25 23 -8 50 -14 61 -14 11 0 24
-3 28 -7 3 -4 17 -9 29 -11 37 -6 42 -7 52 -14 6 -3 33 -9 60 -13 28 -5 55 -9
61 -11 362 -74 677 64 698 305 4 47 -13 61 -71 60 -25 -1 -141 15 -183 24 -8
2 -37 7 -65 11 -27 4 -54 9 -60 10 -5 2 -14 5 -20 6 -5 1 -26 8 -45 15 -19 7
-75 26 -125 41 -91 27 -112 35 -197 73 -26 12 -49 21 -51 21 -3 0 -31 12 -63
27 -33 15 -61 28 -64 28 -11 2 -165 80 -170 85 -8 9 -77 40 -89 40 -6 0 -11 4
-11 8 0 5 -17 17 -37 29 -68 36 -248 147 -261 160 -7 7 -17 13 -22 13 -5 0
-15 6 -22 13 -7 7 -29 22 -48 34 -20 12 -49 33 -65 48 -17 14 -38 28 -47 31
-10 3 -18 10 -18 15 0 5 -7 9 -15 9 -8 0 -15 5 -15 10 0 6 -4 10 -9 10 -5 0
-23 12 -38 28 -16 15 -58 49 -93 77 -34 27 -68 54 -74 60 -6 5 -32 27 -58 48
-152 121 -435 410 -533 542 -16 22 -37 47 -46 55 -9 8 -19 25 -23 38 -4 12
-11 22 -16 22 -5 0 -12 9 -15 20 -3 11 -12 26 -19 32 -54 57 -276 486 -292
567 -4 17 -11 34 -15 37 -5 3 -9 14 -9 25 0 10 -4 19 -8 19 -5 0 -9 7 -10 15
-1 8 -3 22 -4 30 -1 8 -5 15 -10 15 -4 0 -8 12 -8 26 0 14 -5 34 -11 45 -6 11
-14 41 -19 67 -5 26 -15 72 -23 102 -8 30 -19 84 -26 120 -6 36 -13 79 -16 95
-3 17 -9 50 -13 75 -9 61 -8 526 2 570 4 19 11 58 16 85 5 28 11 60 14 73 6
27 -14 29 -65 4z" />
  </g>
  <g transform="translate(0.000000,1153.000000) scale(0.100000,-0.100000)" fill="#235c7e" stroke="none">
    <path d="M768 8910 c-121 -75 218 -580 632 -940 41 -36 83 -73 95 -83 11 -10
31 -27 45 -38 14 -10 42 -32 63 -48 21 -16 61 -44 90 -62 29 -18 54 -36 57
-39 5 -5 21 -14 68 -40 122 -66 224 -71 237 -9 7 29 -11 135 -25 154 -4 6 -24
42 -45 80 -21 39 -41 72 -45 75 -3 3 -25 33 -48 67 -38 56 -114 153 -163 208
-56 63 -322 326 -363 360 -27 22 -54 45 -60 51 -48 46 -275 204 -295 204 -5 0
-11 4 -13 8 -14 35 -193 75 -230 52z" />
    <path d="M12678 8910 c-77 -48 54 -319 282 -584 90 -106 276 -294 360 -366 29
-25 63 -54 75 -65 12 -11 39 -33 61 -49 21 -17 41 -33 44 -36 3 -4 30 -23 60
-43 30 -20 60 -41 67 -47 7 -5 16 -10 22 -10 5 0 11 -4 13 -9 4 -12 145 -77
195 -90 77 -21 118 12 111 87 -6 60 -81 220 -130 276 -10 11 -18 23 -18 27 0
6 -116 160 -128 169 -4 3 -24 26 -44 51 -30 37 -85 98 -166 182 -60 63 -191
181 -317 286 -188 156 -421 262 -487 221z" />
  </g>
  <g transform="translate(0.000000,1153.000000) scale(0.100000,-0.100000)" fill="#d4dee4" stroke="none" />
  <g transform="translate(0.000000,1153.000000) scale(0.100000,-0.100000)" fill="#144b70" stroke="none">
    <path d="M6660 8541 c0 -9 89 -96 92 -90 2 2 -18 25 -44 50 -27 26 -48 43 -48
40z" />
  </g>
  <g transform="translate(0.000000,1153.000000) scale(0.100000,-0.100000)" fill="#0b3b59" stroke="none">
    <path d="M6767 1083 c18 -2 50 -2 70 0 21 2 7 4 -32 4 -38 0 -55 -2 -38 -4z" />
  </g>
  <g transform="translate(0.000000,1153.000000) scale(0.100000,-0.100000)" fill="#094065" stroke="none">
    <path d="M1178 6865 c11 -21 67 -76 92 -89 8 -4 4 3 -10 16 -14 13 -40 39 -59
58 -19 19 -29 26 -23 15z" />
  </g>
  <g transform="translate(0.000000,1153.000000) scale(0.100000,-0.100000)" fill="#c0cfd8" stroke="none">
    <path d="M9783 11523 c32 -2 81 -2 110 0 29 2 3 3 -58 3 -60 0 -84 -1 -52 -3z" />
  </g>
  <g transform="translate(0.000000,1153.000000) scale(0.100000,-0.100000)" fill="#093f60" stroke="none">
    <path d="M7383 603 c5 -8 -6 -13 -35 -16 -36 -3 -34 -4 16 -5 33 -1 57 -1 55
1 -2 1 -13 9 -23 17 -11 8 -17 10 -13 3z" />
  </g>
  <g transform="translate(0.000000,1153.000000) scale(0.100000,-0.100000)" fill="#0d334c" stroke="none" />
  <g transform="translate(0.000000,1153.000000) scale(0.100000,-0.100000)" fill="#82a0b3" stroke="none" />
  <g transform="translate(0.000000,1153.000000) scale(0.100000,-0.100000)" fill="#43708c" stroke="none">
    <path d="M8353 8765 c0 -33 2 -45 4 -27 2 18 2 45 0 60 -2 15 -4 0 -4 -33z" />
  </g>
  <g transform="translate(0.000000,1153.000000) scale(0.100000,-0.100000)" fill="#a1b7c6" stroke="none" />
  <g transform="translate(0.000000,1153.000000) scale(0.100000,-0.100000)" fill="#21587a" stroke="none" />
  <g transform="translate(0.000000,1153.000000) scale(0.100000,-0.100000)" fill="#346584" stroke="none" />
  <g transform="translate(0.000000,1153.000000) scale(0.100000,-0.100000)" fill="#102e48" stroke="none">
    <path d="M374 8800 c0 -52 1 -74 3 -47 2 26 2 68 0 95 -2 26 -3 4 -3 -48z" />
  </g>
  <g transform="translate(0.000000,1153.000000) scale(0.100000,-0.100000)" fill="#6287a0" stroke="none" />
  <g transform="translate(0.000000,1153.000000) scale(0.100000,-0.100000)" fill="#0d2d42" stroke="none" />
  <g transform="translate(0.000000,1153.000000) scale(0.100000,-0.100000)" fill="#b0c3cf" stroke="none" />
  <g transform="translate(0.000000,1153.000000) scale(0.100000,-0.100000)" fill="#102840" stroke="none" />
  <g transform="translate(0.000000,1153.000000) scale(0.100000,-0.100000)" fill="#0e3147" stroke="none" />
  <g transform="translate(0.000000,1153.000000) scale(0.100000,-0.100000)" fill="#7294a9" stroke="none" />
  <g transform="translate(0.000000,1153.000000) scale(0.100000,-0.100000)" fill="#91abbc" stroke="none" />
  <g transform="translate(0.000000,1153.000000) scale(0.100000,-0.100000)" fill="#094369" stroke="none" />
  <g transform="translate(0.000000,1153.000000) scale(0.100000,-0.100000)" fill="#537c96" stroke="none" />
  <g transform="translate(0.000000,1153.000000) scale(0.100000,-0.100000)" fill="#0d486e" stroke="none" />
  <g transform="translate(0.000000,1153.000000) scale(0.100000,-0.100000)" fill="#6b8192" stroke="none">
    <path d="M9100 30 c38 -12 109 -12 90 0 -8 5 -37 9 -65 9 -40 -1 -45 -3 -25
-9z" />
    <path d="M9210 23 c0 -20 153 -32 165 -13 4 6 -14 10 -48 10 -30 0 -69 3 -86
6 -18 4 -31 2 -31 -3z" />
  </g>
  <g transform="translate(0.000000,1153.000000) scale(0.100000,-0.100000)" fill="#1a5377" stroke="none" />
  <g transform="translate(0.000000,1153.000000) scale(0.100000,-0.100000)" fill="#254056" stroke="none" />
  <g transform="translate(0.000000,1153.000000) scale(0.100000,-0.100000)" fill="#94a4b1" stroke="none" />
  <g transform="translate(0.000000,1153.000000) scale(0.100000,-0.100000)" fill="#304a61" stroke="none" />
  <g transform="translate(0.000000,1153.000000) scale(0.100000,-0.100000)" fill="#165075" stroke="none" />
  <g transform="translate(0.000000,1153.000000) scale(0.100000,-0.100000)" fill="#496176" stroke="none" />
  <g transform="translate(0.000000,1153.000000) scale(0.100000,-0.100000)" fill="#416272" stroke="none" />
  <g transform="translate(0.000000,1153.000000) scale(0.100000,-0.100000)" fill="#10283f" stroke="none" />
  <g transform="translate(0.000000,1153.000000) scale(0.100000,-0.100000)" fill="#597184" stroke="none" />
  <g transform="translate(0.000000,1153.000000) scale(0.100000,-0.100000)" fill="#7e91a1" stroke="none" />
  <g transform="translate(0.000000,1153.000000) scale(0.100000,-0.100000)" fill="#224b5f" stroke="none" />
  <g transform="translate(0.000000,1153.000000) scale(0.100000,-0.100000)" fill="#76858f" stroke="none" />
  <g transform="translate(0.000000,1153.000000) scale(0.100000,-0.100000)" fill="#314a5a" stroke="none" />
  <g transform="translate(0.000000,1153.000000) scale(0.100000,-0.100000)" fill="#5e7b89" stroke="none" />
  <g transform="translate(0.000000,1153.000000) scale(0.100000,-0.100000)" fill="#889caa" stroke="none" />
  <g transform="translate(0.000000,1153.000000) scale(0.100000,-0.100000)" fill="#003300" stroke="none" />
  <g transform="translate(0.000000,1153.000000) scale(0.100000,-0.100000)" fill="#0000ff" stroke="none" />
  <g transform="translate(0.000000,1153.000000) scale(0.100000,-0.100000)" fill="#003333" stroke="none" />
</svg>