<svg version="1.1" id="Layer_1" xmlns="http://www.w3.org/2000/svg" xmlns:xlink="http://www.w3.org/1999/xlink" x="0px" y="0px"
	 width="100%" viewBox="0 0 2432 1798" enable-background="new 0 0 2432 1798" xml:space="preserve">
<path fill="#074369" opacity="1.000000" stroke="none" 
	d="
M1520.000000,1.999999 
	C1530.044189,2.000000 1540.088379,2.000000 1551.596436,2.665038 
	C1562.752808,3.463483 1572.445312,3.596889 1583.009766,3.950332 
	C1604.682983,5.997611 1625.515503,7.527138 1646.278931,9.713560 
	C1690.613892,14.382085 1734.138916,23.401850 1777.058960,35.311001 
	C1842.996704,53.606930 1906.020630,79.129440 1966.165283,111.818069 
	C2039.415649,151.629608 2105.832031,200.750504 2165.278076,259.078644 
	C2186.376953,279.780609 2206.334473,301.774017 2225.492432,324.301147 
	C2277.294189,385.213470 2319.603760,452.349121 2353.147217,524.910217 
	C2378.738037,580.268127 2398.580811,637.683228 2412.115234,697.187439 
	C2422.357178,742.215759 2430.458740,787.590088 2432.112793,834.734314 
	C2432.656494,840.393250 2433.328125,845.196655 2434.000000,850.000000 
	C2434.000000,856.722595 2434.000000,863.445129 2433.310547,871.176514 
	C2429.229004,875.662231 2425.753418,879.062744 2422.463623,882.633850 
	C2417.519043,888.000671 2415.265137,894.204956 2415.892090,901.691345 
	C2416.416504,907.950623 2415.963867,914.289246 2416.006348,920.592285 
	C2416.031982,924.339111 2415.947021,927.986572 2411.128418,929.990234 
	C2405.667480,929.341614 2401.056396,928.792053 2396.471924,928.073181 
	C2381.739502,925.763000 2366.751465,924.448059 2352.343018,920.831970 
	C2317.047119,911.973816 2283.337158,898.489258 2250.847900,882.194641 
	C2234.213867,873.851990 2218.109375,864.406860 2202.046387,854.981567 
	C2163.215576,832.196716 2127.118164,805.500916 2093.284424,775.915222 
	C2074.017578,759.067383 2055.833008,740.922180 2037.876831,722.657410 
	C2027.193115,711.789856 2017.291748,700.015808 2008.088379,687.854858 
	C1975.231445,644.439209 1950.809326,596.637939 1935.835083,544.212708 
	C1926.132568,510.243469 1919.480957,475.743805 1919.898804,440.183350 
	C1920.043579,427.857758 1919.824707,415.526978 1920.048950,403.203613 
	C1920.139038,398.254059 1920.856934,393.302826 1921.495239,388.379028 
	C1922.901489,377.532043 1924.438965,366.702057 1926.492798,355.310730 
	C1944.707886,350.546936 1961.934082,352.834381 1979.075317,357.808411 
	C1999.667725,363.784088 2018.718262,373.147949 2037.076660,383.972595 
	C2049.253662,391.152588 2061.101074,398.891693 2073.121826,406.396606 
	C2089.636719,375.475891 2094.293213,341.266113 2091.306641,312.253754 
	C2087.981689,279.956604 2076.149170,250.509781 2057.916016,223.592804 
	C2031.684448,184.868240 1996.972412,155.208313 1957.965332,130.288910 
	C1910.852661,100.191277 1859.837036,78.593094 1806.504639,62.237347 
	C1732.776245,39.626720 1657.134521,27.957756 1580.294678,24.643921 
	C1547.463867,23.228037 1514.455444,24.495951 1481.584839,25.889467 
	C1455.433472,26.998121 1429.228271,29.110147 1403.293823,32.606693 
	C1343.921021,40.611450 1285.698608,53.944317 1229.369141,74.665161 
	C1177.299194,93.819138 1127.965454,118.247398 1083.774414,152.241684 
	C1053.730713,175.352966 1027.210205,201.842331 1008.077393,234.827347 
	C974.583557,292.570862 971.523926,351.661407 1002.107422,411.639557 
	C1021.242126,449.165253 1049.778076,478.689301 1082.682739,504.235596 
	C1130.222778,541.144470 1183.668579,566.860168 1240.268311,586.475647 
	C1293.162598,604.806885 1347.456665,616.932190 1402.902344,624.594177 
	C1437.461670,629.369995 1472.158569,632.200989 1506.923828,633.408936 
	C1542.459717,634.643494 1578.081055,634.171692 1613.532715,630.336426 
	C1637.915894,627.698608 1662.394897,625.690613 1686.646362,622.139893 
	C1748.331421,613.108398 1808.276611,597.277039 1866.684082,574.640137 
	C1868.517578,581.708557 1869.759399,588.223083 1871.242432,594.682251 
	C1880.002197,632.834167 1893.772461,669.061707 1912.610352,703.408264 
	C1930.131226,735.353088 1951.200684,764.713196 1976.257812,791.112305 
	C2000.779907,816.947998 2027.432129,840.438660 2055.315186,862.652527 
	C2094.230713,893.655334 2135.835205,920.395447 2180.151855,942.795593 
	C2204.484619,955.094727 2229.751221,965.494080 2255.848145,973.673767 
	C2280.017822,981.249268 2304.662842,986.333496 2329.652832,988.630066 
	C2326.008545,993.353577 2323.049072,997.868896 2319.285645,1001.565186 
	C2295.069824,1025.348755 2270.678467,1048.953369 2246.343262,1072.615479 
	C2245.865723,1073.079834 2245.385742,1073.543579 2244.884521,1073.981689 
	C2229.393311,1087.523438 2213.944336,1101.114136 2198.392090,1114.585449 
	C2183.591309,1127.406006 2168.933838,1140.410522 2153.754395,1152.770508 
	C2136.518311,1166.805054 2119.029541,1180.559692 2101.193604,1193.821533 
	C2064.948486,1220.771729 2028.783081,1247.858765 1991.846558,1273.839844 
	C1963.019287,1294.116699 1933.466309,1313.434814 1903.528442,1332.040649 
	C1868.526123,1353.793823 1833.052002,1374.831543 1797.231323,1395.211060 
	C1764.570312,1413.792969 1731.429321,1431.579224 1698.015137,1448.774536 
	C1672.582397,1461.862671 1646.432373,1473.565430 1620.520020,1485.710815 
	C1604.859863,1493.050781 1589.263550,1500.599365 1573.252441,1507.103516 
	C1539.986816,1520.617310 1506.614746,1533.898071 1473.012451,1546.546753 
	C1421.298218,1566.012939 1368.590698,1582.517578 1315.015991,1596.003174 
	C1274.797363,1606.126709 1234.307739,1615.268799 1193.035645,1620.213379 
	C1164.759644,1623.600830 1136.519775,1628.312500 1108.139160,1629.533203 
	C1076.635498,1630.888184 1044.990112,1628.929932 1013.405090,1628.515381 
	C1012.260925,1628.500366 1011.102600,1629.558594 1009.277344,1629.978027 
	C952.426697,1588.935547 901.586975,1542.213501 856.166626,1489.630005 
	C775.076721,1395.751099 715.893127,1289.645508 678.508667,1171.334961 
	C655.580078,1098.772705 642.522827,1024.397095 638.572571,948.541809 
	C636.324951,905.382751 637.102783,862.163086 641.435181,819.012390 
	C644.420898,789.274536 648.247375,759.721924 653.848022,730.385437 
	C669.147583,650.245117 695.216064,573.717346 731.541565,500.713898 
	C750.232666,463.150421 771.673096,427.189117 795.453003,392.570404 
	C836.725403,332.486298 884.485168,278.131287 938.938477,229.781815 
	C1011.127502,165.684738 1091.586426,114.380997 1180.274414,76.068100 
	C1225.832886,56.387020 1272.713013,40.581024 1320.852295,28.680538 
	C1376.384155,14.952489 1432.825928,6.992503 1490.880005,3.988376 
	C1498.789185,4.047390 1505.774780,4.193826 1512.743286,3.913672 
	C1515.183960,3.815550 1517.582275,2.668213 1520.000000,1.999999 
M2020.964478,421.979340 
	C2016.555542,419.641266 2012.340332,416.761932 2007.690063,415.098694 
	C2001.518188,412.891296 1995.078735,410.671448 1988.624634,410.188019 
	C1978.472168,409.427551 1974.144897,415.435242 1976.944946,425.448944 
	C1978.550659,431.191650 1980.631836,436.883331 1983.206055,442.259460 
	C1996.135742,469.263824 2015.340698,491.839447 2035.100708,513.867004 
	C2046.209473,526.250488 2058.410645,537.667786 2070.316895,549.318848 
	C2090.581543,569.149048 2112.530273,586.945496 2137.074951,601.182739 
	C2145.895020,606.298706 2155.640869,610.185242 2165.406494,613.199036 
	C2174.783691,616.092957 2180.426270,611.281494 2179.861084,601.542908 
	C2179.522217,595.709717 2178.346191,589.521667 2175.851074,584.303955 
	C2171.129150,574.430115 2165.757568,564.755249 2159.639893,555.682861 
	C2143.615234,531.919128 2124.512207,510.581757 2104.654785,490.049194 
	C2092.211670,477.182770 2078.634766,465.290924 2064.724609,453.999054 
	C2051.088135,442.929199 2036.385376,433.172791 2020.964478,421.979340 
z"/>
<path fill="#FFFFFF" opacity="1.000000" stroke="none" 
	d="
M1489.949707,3.907990 
	C1432.825928,6.992503 1376.384155,14.952489 1320.852295,28.680538 
	C1272.713013,40.581024 1225.832886,56.387020 1180.274414,76.068100 
	C1091.586426,114.380997 1011.127502,165.684738 938.938477,229.781815 
	C884.485168,278.131287 836.725403,332.486298 795.453003,392.570404 
	C771.673096,427.189117 750.232666,463.150421 731.541565,500.713898 
	C695.216064,573.717346 669.147583,650.245117 653.848022,730.385437 
	C648.247375,759.721924 644.420898,789.274536 641.435181,819.012390 
	C637.102783,862.163086 636.324951,905.382751 638.572571,948.541809 
	C642.522827,1024.397095 655.580078,1098.772705 678.508667,1171.334961 
	C715.893127,1289.645508 775.076721,1395.751099 856.166626,1489.630005 
	C901.586975,1542.213501 952.426697,1588.935547 1009.618286,1630.517212 
	C1013.120850,1632.783203 1015.609009,1634.371338 1018.361816,1636.481934 
	C1019.674011,1637.489502 1020.721558,1637.974854 1021.781250,1638.354980 
	C1021.793274,1638.249878 1021.582947,1638.272461 1021.770203,1638.804443 
	C1022.628601,1639.604736 1023.299744,1639.873047 1024.229248,1640.595947 
	C1025.428955,1641.453247 1026.370239,1641.855835 1027.569214,1642.789673 
	C1028.539795,1643.587524 1029.252686,1643.854248 1029.970947,1644.059326 
	C1029.976318,1643.997925 1029.879395,1644.073975 1030.227295,1644.652344 
	C1060.299805,1665.451660 1090.962158,1684.084839 1123.020264,1700.414795 
	C1128.126587,1703.015869 1132.604004,1706.851318 1137.780884,1710.716064 
	C1184.484375,1733.846802 1232.479736,1751.878662 1281.891357,1766.322021 
	C1328.072144,1779.820801 1375.431885,1787.573608 1422.616699,1796.255493 
	C1426.510254,1796.971924 1431.196533,1795.788818 1434.000000,1800.000000 
	C956.821472,1800.000000 479.642944,1800.000000 2.000000,1800.000000 
	C2.000000,1379.291626 2.000000,958.583130 2.541446,536.974487 
	C3.792362,536.152649 4.501831,536.230957 5.414045,537.180908 
	C6.921473,564.715027 12.442477,590.615723 19.550200,616.253906 
	C31.466993,659.238831 50.373272,699.001160 74.966728,736.079224 
	C97.907074,770.664978 126.149376,800.641418 156.911331,828.292297 
	C209.100967,875.203796 265.949341,915.312195 329.286713,945.939331 
	C366.225250,963.801147 404.315582,978.184326 444.926025,985.090454 
	C465.311707,988.557129 485.791931,989.974365 506.307495,985.987549 
	C533.621399,980.679810 552.460876,964.586487 556.793945,935.961853 
	C558.129822,929.461121 559.296265,923.573242 559.599731,917.641235 
	C561.108521,888.150269 556.380615,859.446411 548.569092,831.097534 
	C536.583679,787.600769 518.613037,746.625854 496.828339,707.254456 
	C465.263824,650.208191 427.081696,597.942993 380.998169,551.830383 
	C351.159668,521.973022 320.415131,492.950409 288.973419,464.785278 
	C254.787613,434.161987 218.507843,406.079285 178.656265,382.939575 
	C157.579636,370.701477 135.732864,360.255493 111.763245,355.167664 
	C97.856415,352.215790 83.735664,350.013062 69.127808,355.849823 
	C50.929955,360.531219 39.039238,372.094086 30.191875,387.207855 
	C18.112028,407.843597 11.969168,430.496857 8.137602,453.876404 
	C6.705003,462.617889 5.521167,471.400146 3.673185,480.051544 
	C2.748308,479.959503 2.374154,479.979767 2.000000,480.000000 
	C2.000000,320.737579 2.000000,161.475174 2.000000,2.000000 
	C497.375092,2.000000 992.750244,2.000000 1489.094727,2.478171 
	C1490.063965,2.956343 1489.949707,3.907990 1489.949707,3.907990 
z"/>
<path fill="#0A3954" opacity="1.000000" stroke="none" 
	d="
M1018.097168,1635.959717 
	C1015.609009,1634.371338 1013.120850,1632.783203 1010.291748,1630.655762 
	C1011.102600,1629.558594 1012.260925,1628.500366 1013.405090,1628.515381 
	C1044.990112,1628.929932 1076.635498,1630.888184 1108.139160,1629.533203 
	C1136.519775,1628.312500 1164.759644,1623.600830 1193.035645,1620.213379 
	C1234.307739,1615.268799 1274.797363,1606.126709 1315.015991,1596.003174 
	C1368.590698,1582.517578 1421.298218,1566.012939 1473.012451,1546.546753 
	C1506.614746,1533.898071 1539.986816,1520.617310 1573.252441,1507.103516 
	C1589.263550,1500.599365 1604.859863,1493.050781 1620.520020,1485.710815 
	C1646.432373,1473.565430 1672.582397,1461.862671 1698.015137,1448.774536 
	C1731.429321,1431.579224 1764.570312,1413.792969 1797.231323,1395.211060 
	C1833.052002,1374.831543 1868.526123,1353.793823 1903.528442,1332.040649 
	C1933.466309,1313.434814 1963.019287,1294.116699 1991.846558,1273.839844 
	C2028.783081,1247.858765 2064.948486,1220.771729 2101.193604,1193.821533 
	C2119.029541,1180.559692 2136.518311,1166.805054 2153.754395,1152.770508 
	C2168.933838,1140.410522 2183.591309,1127.406006 2198.392090,1114.585449 
	C2213.944336,1101.114136 2229.393311,1087.523438 2244.884521,1073.981689 
	C2245.385742,1073.543579 2245.865723,1073.079834 2246.343262,1072.615479 
	C2270.678467,1048.953369 2295.069824,1025.348755 2319.285645,1001.565186 
	C2323.049072,997.868896 2326.008545,993.353577 2330.575928,988.613220 
	C2346.180176,988.602417 2360.183838,986.508850 2373.909912,982.331116 
	C2396.769775,975.373413 2412.390869,954.825256 2411.990234,930.011841 
	C2415.947021,927.986572 2416.031982,924.339111 2416.006348,920.592285 
	C2415.963867,914.289246 2416.416504,907.950623 2415.892090,901.691345 
	C2415.265137,894.204956 2417.519043,888.000671 2422.463623,882.633850 
	C2425.753418,879.062744 2429.229004,875.662231 2433.310547,872.092651 
	C2434.000000,900.041809 2434.000000,928.083557 2433.261719,957.436462 
	C2432.472168,963.222717 2432.420898,967.697815 2432.222656,973.075134 
	C2430.163818,993.767334 2428.968262,1013.658081 2426.202881,1033.328125 
	C2418.564209,1087.660522 2406.646240,1140.968140 2387.801514,1192.689697 
	C2370.702148,1239.620728 2351.300781,1285.437500 2327.566895,1329.428101 
	C2290.879639,1397.428223 2246.070801,1459.609741 2193.285156,1515.914185 
	C2151.086914,1560.925171 2104.844971,1601.458008 2054.280762,1636.981201 
	C1997.709351,1676.724365 1937.506226,1709.778320 1873.387817,1735.612549 
	C1859.882202,1741.054199 1845.931274,1745.390747 1832.461182,1749.579102 
	C1835.010742,1747.673462 1837.182129,1746.163452 1839.577515,1745.224854 
	C1847.319946,1742.190918 1855.230225,1739.576538 1862.923340,1736.427734 
	C1904.251831,1719.511963 1944.331421,1700.056763 1982.951294,1677.582275 
	C2037.464355,1645.859131 2088.075684,1608.722168 2134.424561,1566.084106 
	C2157.658447,1544.710449 2179.293213,1521.498291 2200.584717,1498.145264 
	C2217.562744,1479.523682 2233.454346,1459.838501 2248.888428,1439.898193 
	C2276.425537,1404.321167 2300.382324,1366.308960 2321.508789,1326.626587 
	C2339.500488,1292.832520 2355.272461,1257.990967 2369.189453,1222.243408 
	C2385.169189,1181.197754 2397.255371,1139.077393 2407.488770,1096.345337 
	C2409.085693,1089.676880 2410.135010,1082.877075 2411.437500,1076.137939 
	C2408.866699,1077.029663 2407.972412,1078.351685 2407.164307,1079.724365 
	C2399.571777,1092.619873 2392.444824,1105.815308 2384.329346,1118.372192 
	C2357.609131,1159.715820 2329.216064,1199.865967 2296.364746,1236.645996 
	C2276.448975,1258.943481 2256.629883,1281.366577 2235.817871,1302.811890 
	C2221.266113,1317.806396 2205.402588,1331.581299 2189.596436,1345.291626 
	C2167.783936,1364.211792 2146.025391,1383.267944 2123.239990,1400.974243 
	C2093.345215,1424.205444 2062.420898,1446.065186 2030.507080,1466.547852 
	C1990.422607,1492.274292 1949.021484,1515.649536 1906.737793,1537.450684 
	C1885.470703,1548.416016 1863.729736,1558.570801 1841.722412,1567.966309 
	C1807.780518,1582.456909 1773.832520,1597.105957 1739.147949,1609.642578 
	C1690.659424,1627.168457 1641.561646,1643.056152 1591.367065,1655.189819 
	C1565.207642,1661.513794 1539.103394,1668.140015 1512.767212,1673.637817 
	C1487.459839,1678.921021 1461.912842,1683.086914 1436.417358,1687.427124 
	C1421.714355,1689.930176 1406.932251,1692.023071 1392.134888,1693.900757 
	C1378.327759,1695.652710 1364.450073,1696.846069 1350.609497,1698.340210 
	C1333.484497,1700.188599 1316.392700,1702.410034 1299.236572,1703.889893 
	C1279.746216,1705.570923 1260.218628,1707.103027 1240.674927,1707.813232 
	C1211.104248,1708.887817 1181.505737,1709.195801 1152.257080,1709.421631 
	C1155.244141,1707.043213 1153.915405,1705.954834 1151.759766,1704.888672 
	C1143.712280,1700.908813 1135.635742,1696.982300 1127.670532,1692.842651 
	C1097.898438,1677.369629 1068.188477,1661.777344 1038.379883,1646.375488 
	C1035.830566,1645.058228 1032.726074,1644.815674 1029.879395,1644.073975 
	C1029.879395,1644.073975 1029.976318,1643.997925 1029.652832,1643.591064 
	C1028.656738,1642.875732 1027.984131,1642.567139 1027.311523,1642.258545 
	C1026.370239,1641.855835 1025.428955,1641.453247 1023.957275,1640.141479 
	C1022.812256,1638.912476 1022.197571,1638.592529 1021.582886,1638.272461 
	C1021.582947,1638.272461 1021.793274,1638.249878 1021.540161,1637.802368 
	C1020.223755,1636.889771 1019.160461,1636.424805 1018.097168,1635.959717 
z"/>
<path fill="#FEFFFF" opacity="1.000000" stroke="none" 
	d="
M2432.240723,833.878784 
	C2430.458740,787.590088 2422.357178,742.215759 2412.115234,697.187439 
	C2398.580811,637.683228 2378.738037,580.268127 2353.147217,524.910217 
	C2319.603760,452.349121 2277.294189,385.213470 2225.492432,324.301147 
	C2206.334473,301.774017 2186.376953,279.780609 2165.278076,259.078644 
	C2105.832031,200.750504 2039.415649,151.629608 1966.165283,111.818069 
	C1906.020630,79.129440 1842.996704,53.606930 1777.058960,35.311001 
	C1734.138916,23.401850 1690.613892,14.382085 1646.278931,9.713560 
	C1625.515503,7.527138 1604.682983,5.997611 1582.998535,3.515910 
	C1582.115234,2.861452 1582.000000,2.000000 1582.000000,2.000000 
	C1865.852417,2.000000 2149.704834,2.000000 2434.000000,2.000000 
	C2434.000000,278.708313 2434.000000,555.416809 2433.561035,833.021790 
	C2433.121826,833.918213 2432.240723,833.878784 2432.240723,833.878784 
z"/>
<path fill="#FEFFFF" opacity="1.000000" stroke="none" 
	d="
M1832.185547,1750.236328 
	C1845.931274,1745.390747 1859.882202,1741.054199 1873.387817,1735.612549 
	C1937.506226,1709.778320 1997.709351,1676.724365 2054.280762,1636.981201 
	C2104.844971,1601.458008 2151.086914,1560.925171 2193.285156,1515.914185 
	C2246.070801,1459.609741 2290.879639,1397.428223 2327.566895,1329.428101 
	C2351.300781,1285.437500 2370.702148,1239.620728 2387.801514,1192.689697 
	C2406.646240,1140.968140 2418.564209,1087.660522 2426.202881,1033.328125 
	C2428.968262,1013.658081 2430.163818,993.767334 2432.643799,973.160217 
	C2433.211914,972.343140 2434.000000,972.000000 2434.000000,972.000000 
	C2434.000000,1247.854004 2434.000000,1523.707886 2434.000000,1800.000000 
	C2159.291748,1800.000000 1884.583130,1800.000000 1608.967041,1799.558838 
	C1608.059448,1799.117554 1608.096558,1798.233887 1608.936279,1798.000610 
	C1638.002197,1794.139282 1666.279541,1790.859009 1694.432739,1786.731445 
	C1707.773682,1784.775635 1720.877441,1781.200562 1734.848389,1778.393799 
	C1738.433228,1777.635620 1741.258179,1776.842896 1744.050415,1776.018066 
	C1744.017822,1775.986084 1744.008423,1776.076904 1744.729492,1776.149292 
	C1747.661377,1775.497803 1749.872192,1774.774048 1752.050537,1774.018066 
	C1752.017944,1773.985962 1752.008545,1774.076904 1752.729248,1774.149170 
	C1755.657715,1773.496704 1757.865723,1772.771851 1760.044922,1772.017090 
	C1760.016113,1771.987183 1760.011475,1772.069946 1760.782715,1772.138062 
	C1765.785645,1770.872070 1770.017456,1769.537842 1774.174561,1768.168091 
	C1774.099854,1768.132568 1774.050415,1768.290527 1774.827148,1768.349609 
	C1777.491455,1767.707397 1779.378784,1767.005981 1781.438110,1766.368896 
	C1781.609985,1766.433228 1781.815796,1766.129272 1782.529053,1766.183105 
	C1784.908936,1765.559082 1786.575439,1764.881348 1788.172852,1764.169189 
	C1788.103760,1764.134644 1788.068970,1764.285278 1788.841797,1764.343994 
	C1793.815430,1762.997559 1798.015991,1761.592529 1802.149414,1760.150635 
	C1802.082275,1760.113770 1802.054810,1760.264526 1802.744385,1760.318848 
	C1805.031250,1759.647217 1806.628784,1758.921021 1808.158936,1758.158203 
	C1808.091675,1758.121460 1808.057251,1758.270874 1808.746582,1758.322998 
	C1811.032715,1757.648315 1812.629395,1756.921509 1814.158936,1756.158203 
	C1814.091675,1756.121460 1814.057251,1756.270874 1814.746582,1756.322998 
	C1817.032715,1755.648560 1818.629517,1754.921753 1820.158936,1754.158203 
	C1820.091675,1754.121460 1820.057251,1754.270874 1820.746582,1754.323120 
	C1823.031006,1753.647583 1824.626099,1752.919800 1826.154541,1752.154297 
	C1826.087646,1752.116455 1826.056152,1752.266724 1826.745117,1752.319580 
	C1829.026733,1751.644409 1830.619263,1750.916260 1832.173096,1750.174805 
	C1832.134521,1750.161499 1832.185547,1750.236328 1832.185547,1750.236328 
z"/>
<path fill="#0F293B" opacity="1.000000" stroke="none" 
	d="
M1781.815796,1766.129272 
	C1781.815796,1766.129272 1781.609985,1766.433228 1780.638550,1766.269043 
	C1777.794922,1766.833374 1775.922607,1767.561890 1774.050415,1768.290527 
	C1774.050415,1768.290527 1774.099854,1768.132568 1773.374390,1768.074219 
	C1767.951782,1767.856323 1763.346680,1767.984009 1760.011475,1772.069946 
	C1760.011475,1772.069946 1760.016113,1771.987183 1759.312134,1771.945312 
	C1756.408325,1772.628052 1754.208496,1773.352539 1752.008545,1774.076904 
	C1752.008545,1774.076904 1752.017944,1773.985962 1751.316772,1773.946167 
	C1748.413208,1774.629883 1746.210815,1775.353516 1744.008423,1776.076904 
	C1744.008423,1776.076904 1744.017822,1775.986084 1743.266357,1775.945312 
	C1739.706055,1776.722656 1736.897339,1777.540894 1734.088623,1778.359131 
	C1720.877441,1781.200562 1707.773682,1784.775635 1694.432739,1786.731445 
	C1666.279541,1790.859009 1638.002197,1794.139282 1608.073242,1797.873535 
	C1602.354858,1798.084351 1598.339233,1798.188843 1593.417603,1798.185547 
	C1586.341187,1798.718506 1580.170532,1799.359253 1574.000000,1800.000000 
	C1546.624878,1800.000000 1519.249756,1800.000000 1490.398926,1799.415283 
	C1483.202515,1798.068726 1477.423340,1796.459717 1472.000000,1800.000000 
	C1459.957642,1800.000000 1447.915405,1800.000000 1434.936523,1800.000000 
	C1431.196533,1795.788818 1426.510254,1796.971924 1422.616699,1796.255493 
	C1375.431885,1787.573608 1328.072144,1779.820801 1281.891357,1766.322021 
	C1232.479736,1751.878662 1184.484375,1733.846802 1138.103149,1710.750977 
	C1138.016724,1710.185913 1138.589111,1709.888672 1138.945312,1709.917969 
	C1139.301514,1709.947266 1140.015015,1709.901367 1140.866455,1709.888184 
	C1145.118286,1709.859741 1148.518677,1709.844604 1151.919067,1709.829468 
	C1181.505737,1709.195801 1211.104248,1708.887817 1240.674927,1707.813232 
	C1260.218628,1707.103027 1279.746216,1705.570923 1299.236572,1703.889893 
	C1316.392700,1702.410034 1333.484497,1700.188599 1350.609497,1698.340210 
	C1364.450073,1696.846069 1378.327759,1695.652710 1392.134888,1693.900757 
	C1406.932251,1692.023071 1421.714355,1689.930176 1436.417358,1687.427124 
	C1461.912842,1683.086914 1487.459839,1678.921021 1512.767212,1673.637817 
	C1539.103394,1668.140015 1565.207642,1661.513794 1591.367065,1655.189819 
	C1641.561646,1643.056152 1690.659424,1627.168457 1739.147949,1609.642578 
	C1773.832520,1597.105957 1807.780518,1582.456909 1841.722412,1567.966309 
	C1863.729736,1558.570801 1885.470703,1548.416016 1906.737793,1537.450684 
	C1949.021484,1515.649536 1990.422607,1492.274292 2030.507080,1466.547852 
	C2062.420898,1446.065186 2093.345215,1424.205444 2123.239990,1400.974243 
	C2146.025391,1383.267944 2167.783936,1364.211792 2189.596436,1345.291626 
	C2205.402588,1331.581299 2221.266113,1317.806396 2235.817871,1302.811890 
	C2256.629883,1281.366577 2276.448975,1258.943481 2296.364746,1236.645996 
	C2329.216064,1199.865967 2357.609131,1159.715820 2384.329346,1118.372192 
	C2392.444824,1105.815308 2399.571777,1092.619873 2407.164307,1079.724365 
	C2407.972412,1078.351685 2408.866699,1077.029663 2411.437500,1076.137939 
	C2410.135010,1082.877075 2409.085693,1089.676880 2407.488770,1096.345337 
	C2397.255371,1139.077393 2385.169189,1181.197754 2369.189453,1222.243408 
	C2355.272461,1257.990967 2339.500488,1292.832520 2321.508789,1326.626587 
	C2300.382324,1366.308960 2276.425537,1404.321167 2248.888428,1439.898193 
	C2233.454346,1459.838501 2217.562744,1479.523682 2200.584717,1498.145264 
	C2179.293213,1521.498291 2157.658447,1544.710449 2134.424561,1566.084106 
	C2088.075684,1608.722168 2037.464355,1645.859131 1982.951294,1677.582275 
	C1944.331421,1700.056763 1904.251831,1719.511963 1862.923340,1736.427734 
	C1855.230225,1739.576538 1847.319946,1742.190918 1839.577515,1745.224854 
	C1837.182129,1746.163452 1835.010742,1747.673462 1832.461182,1749.579102 
	C1832.185547,1750.236328 1832.134521,1750.161499 1831.475586,1750.086792 
	C1829.229858,1750.763672 1827.643066,1751.515259 1826.056152,1752.266724 
	C1826.056152,1752.266724 1826.087646,1752.116455 1825.456177,1752.067139 
	C1823.235596,1752.768799 1821.646484,1753.519897 1820.057251,1754.270996 
	C1820.057251,1754.270874 1820.091675,1754.121460 1819.460205,1754.070923 
	C1817.238281,1754.770508 1815.647827,1755.520752 1814.057251,1756.270874 
	C1814.057251,1756.270874 1814.091675,1756.121460 1813.460205,1756.071045 
	C1811.238403,1756.770630 1809.647827,1757.520752 1808.057251,1758.270996 
	C1808.057251,1758.270874 1808.091675,1758.121460 1807.460449,1758.070923 
	C1805.237671,1758.768433 1803.646240,1759.516479 1802.054810,1760.264526 
	C1802.054810,1760.264526 1802.082275,1760.113770 1801.348633,1760.048340 
	C1795.906860,1759.882935 1791.236572,1759.893188 1788.068970,1764.285278 
	C1788.068970,1764.285278 1788.103760,1764.134644 1787.466675,1764.081177 
	C1785.158325,1764.728149 1783.487061,1765.428711 1781.815796,1766.129272 
z"/>
<path fill="#10283E" opacity="1.000000" stroke="none" 
	d="
M4.223908,480.163818 
	C5.521167,471.400146 6.705003,462.617889 8.137602,453.876404 
	C11.969168,430.496857 18.112028,407.843597 30.191875,387.207855 
	C39.039238,372.094086 50.929955,360.531219 69.038727,356.642700 
	C64.919823,376.565063 63.188297,396.089935 62.178833,415.615173 
	C61.044842,437.549011 63.198570,459.383362 65.846008,481.188049 
	C69.226082,509.026825 75.604424,536.170288 84.690315,562.587158 
	C94.115173,589.989502 105.966393,616.367859 120.584053,641.521423 
	C139.233353,673.612427 161.538956,702.882446 187.009705,729.744873 
	C195.914291,739.135986 205.616501,747.816223 215.365677,756.351379 
	C234.103577,772.755798 252.661026,789.421570 272.148407,804.902527 
	C307.130310,832.692505 344.646881,856.846924 384.510895,876.975769 
	C407.932648,888.802307 432.153351,899.209167 456.564911,908.863342 
	C477.570740,917.170532 499.464111,923.089294 521.987610,926.139954 
	C531.183044,927.385376 540.345154,929.008972 549.579224,929.782959 
	C554.342468,930.182312 556.072510,932.269592 556.226685,936.554382 
	C552.460876,964.586487 533.621399,980.679810 506.307495,985.987549 
	C485.791931,989.974365 465.311707,988.557129 444.926025,985.090454 
	C404.315582,978.184326 366.225250,963.801147 329.286713,945.939331 
	C265.949341,915.312195 209.100967,875.203796 156.911331,828.292297 
	C126.149376,800.641418 97.907074,770.664978 74.966728,736.079224 
	C50.373272,699.001160 31.466993,659.238831 19.550200,616.253906 
	C12.442477,590.615723 6.921473,564.715027 5.355585,536.331970 
	C4.902810,528.968628 4.906619,523.308716 4.413187,517.692505 
	C4.241584,515.739380 2.839883,513.894409 1.999997,512.000000 
	C2.000000,509.222229 2.000000,506.444427 2.822436,502.533447 
	C3.837883,494.321411 4.030896,487.242615 4.223908,480.163818 
z"/>
<path fill="#B2BBC3" opacity="1.000000" stroke="none" 
	d="
M1.999997,512.921265 
	C2.839883,513.894409 4.241584,515.739380 4.413187,517.692505 
	C4.906619,523.308716 4.902810,528.968628 5.152841,535.460327 
	C4.501831,536.230957 3.792362,536.152649 2.541446,536.037170 
	C2.000000,528.614197 2.000000,521.228333 1.999997,512.921265 
z"/>
<path fill="#A9BECB" opacity="1.000000" stroke="none" 
	d="
M1581.067749,2.000000 
	C1582.000000,2.000000 1582.115234,2.861452 1582.126465,3.295874 
	C1572.445312,3.596889 1562.752808,3.463483 1552.530151,2.665038 
	C1561.378540,2.000000 1570.756958,2.000000 1581.067749,2.000000 
z"/>
<path fill="#ABBFCC" opacity="1.000000" stroke="none" 
	d="
M1490.880005,3.988376 
	C1489.949707,3.907990 1490.063965,2.956343 1490.031982,2.478171 
	C1499.378540,2.000000 1508.756958,2.000000 1519.067749,1.999999 
	C1517.582275,2.668213 1515.183960,3.815550 1512.743286,3.913672 
	C1505.774780,4.193826 1498.789185,4.047390 1490.880005,3.988376 
z"/>
<path fill="#AFB8C0" opacity="1.000000" stroke="none" 
	d="
M3.673185,480.051544 
	C4.030896,487.242615 3.837883,494.321411 2.822436,501.700104 
	C2.000000,495.277435 2.000000,488.554840 2.000000,480.916138 
	C2.374154,479.979767 2.748308,479.959503 3.673185,480.051544 
z"/>
<path fill="#476579" opacity="1.000000" stroke="none" 
	d="
M1574.908203,1800.000000 
	C1580.170532,1799.359253 1586.341187,1798.718506 1593.343018,1798.613525 
	C1594.174194,1799.149170 1594.000000,1800.000000 1594.000000,1800.000000 
	C1587.938843,1800.000000 1581.877563,1800.000000 1574.908203,1800.000000 
z"/>
<path fill="#4B5F6D" opacity="1.000000" stroke="none" 
	d="
M1472.899902,1800.000000 
	C1477.423340,1796.459717 1483.202515,1798.068726 1489.461670,1799.415283 
	C1484.599976,1800.000000 1479.199951,1800.000000 1472.899902,1800.000000 
z"/>
<path fill="#A9BECB" opacity="1.000000" stroke="none" 
	d="
M2432.112793,834.734314 
	C2432.240723,833.878784 2433.121826,833.918213 2433.561035,833.959106 
	C2434.000000,838.741150 2434.000000,843.482239 2434.000000,849.111694 
	C2433.328125,845.196655 2432.656494,840.393250 2432.112793,834.734314 
z"/>
<path fill="#BDCBD4" opacity="1.000000" stroke="none" 
	d="
M1594.875000,1800.000000 
	C1594.000000,1800.000000 1594.174194,1799.149170 1594.248779,1798.721191 
	C1598.339233,1798.188843 1602.354858,1798.084351 1607.233643,1798.106812 
	C1608.096558,1798.233887 1608.059448,1799.117554 1608.029785,1799.558838 
	C1603.916626,1800.000000 1599.833374,1800.000000 1594.875000,1800.000000 
z"/>
<path fill="#AEBDC4" opacity="1.000000" stroke="none" 
	d="
M2434.000000,971.125000 
	C2434.000000,972.000000 2433.211914,972.343140 2432.790527,972.258057 
	C2432.420898,967.697815 2432.472168,963.222717 2433.261719,958.373779 
	C2434.000000,962.083313 2434.000000,966.166687 2434.000000,971.125000 
z"/>
<path fill="#FEFFFF" opacity="1.000000" stroke="none" 
	d="
M1866.203735,574.060608 
	C1808.276611,597.277039 1748.331421,613.108398 1686.646362,622.139893 
	C1662.394897,625.690613 1637.915894,627.698608 1613.532715,630.336426 
	C1578.081055,634.171692 1542.459717,634.643494 1506.923828,633.408936 
	C1472.158569,632.200989 1437.461670,629.369995 1402.902344,624.594177 
	C1347.456665,616.932190 1293.162598,604.806885 1240.268311,586.475647 
	C1183.668579,566.860168 1130.222778,541.144470 1082.682739,504.235596 
	C1049.778076,478.689301 1021.242126,449.165253 1002.107422,411.639557 
	C971.523926,351.661407 974.583557,292.570862 1008.077393,234.827347 
	C1027.210205,201.842331 1053.730713,175.352966 1083.774414,152.241684 
	C1127.965454,118.247398 1177.299194,93.819138 1229.369141,74.665161 
	C1285.698608,53.944317 1343.921021,40.611450 1403.293823,32.606693 
	C1429.228271,29.110147 1455.433472,26.998121 1481.584839,25.889467 
	C1514.455444,24.495951 1547.463867,23.228037 1580.294678,24.643921 
	C1657.134521,27.957756 1732.776245,39.626720 1806.504639,62.237347 
	C1859.837036,78.593094 1910.852661,100.191277 1957.965332,130.288910 
	C1996.972412,155.208313 2031.684448,184.868240 2057.916016,223.592804 
	C2076.149170,250.509781 2087.981689,279.956604 2091.306641,312.253754 
	C2094.293213,341.266113 2089.636719,375.475891 2073.121826,406.396606 
	C2061.101074,398.891693 2049.253662,391.152588 2037.076660,383.972595 
	C2018.718262,373.147949 1999.667725,363.784088 1979.075317,357.808411 
	C1961.934082,352.834381 1944.707886,350.546936 1925.747681,355.321350 
	C1914.887451,358.437469 1907.022461,363.668579 1899.967041,370.510040 
	C1888.445435,381.682770 1881.678589,395.642944 1876.094849,410.286041 
	C1868.854370,429.274231 1864.703491,449.105011 1862.648071,469.203400 
	C1860.965698,485.652710 1860.085571,502.329742 1860.729248,518.832520 
	C1861.448975,537.284973 1864.287354,555.654785 1866.203735,574.060608 
M1616.307861,444.425262 
	C1618.826782,474.567657 1628.787109,501.402283 1651.705078,522.173340 
	C1672.330688,540.866760 1701.650391,546.068970 1727.259155,530.951233 
	C1744.421509,520.819763 1756.218628,505.776245 1764.155396,487.675415 
	C1774.958984,463.036530 1778.073120,437.317261 1773.617920,410.854828 
	C1769.331665,385.395935 1759.790894,362.453796 1740.147217,344.591766 
	C1725.886108,331.623993 1709.180664,324.931061 1690.118408,326.719086 
	C1669.595825,328.644104 1653.343384,339.198822 1640.821655,355.499725 
	C1621.048218,381.241333 1614.206421,410.643341 1616.307861,444.425262 
M1461.638428,464.169250 
	C1462.537476,451.615326 1464.227295,439.058136 1464.175293,426.508148 
	C1464.058472,398.317383 1455.274658,372.742889 1436.598755,351.508209 
	C1412.252686,323.826569 1376.714966,317.671173 1346.507568,339.594147 
	C1335.818481,347.351898 1327.836182,357.384735 1321.401733,368.800385 
	C1309.318359,390.238129 1304.936157,413.320282 1305.566162,437.763367 
	C1306.226562,463.380493 1312.996704,486.860229 1327.992065,507.733490 
	C1341.027344,525.878235 1358.354126,537.845032 1380.897827,539.441406 
	C1404.881958,541.139832 1423.737061,530.103760 1438.825562,512.020142 
	C1450.130737,498.470673 1456.815063,482.685486 1461.638428,464.169250 
z"/>
<path fill="#0F273D" opacity="1.000000" stroke="none" 
	d="
M1866.684082,574.640137 
	C1864.287354,555.654785 1861.448975,537.284973 1860.729248,518.832520 
	C1860.085571,502.329742 1860.965698,485.652710 1862.648071,469.203400 
	C1864.703491,449.105011 1868.854370,429.274231 1876.094849,410.286041 
	C1881.678589,395.642944 1888.445435,381.682770 1899.967041,370.510040 
	C1907.022461,363.668579 1914.887451,358.437469 1925.177734,355.875763 
	C1924.438965,366.702057 1922.901489,377.532043 1921.495239,388.379028 
	C1920.856934,393.302826 1920.139038,398.254059 1920.048950,403.203613 
	C1919.824707,415.526978 1920.043579,427.857758 1919.898804,440.183350 
	C1919.480957,475.743805 1926.132568,510.243469 1935.835083,544.212708 
	C1950.809326,596.637939 1975.231445,644.439209 2008.088379,687.854858 
	C2017.291748,700.015808 2027.193115,711.789856 2037.876831,722.657410 
	C2055.833008,740.922180 2074.017578,759.067383 2093.284424,775.915222 
	C2127.118164,805.500916 2163.215576,832.196716 2202.046387,854.981567 
	C2218.109375,864.406860 2234.213867,873.851990 2250.847900,882.194641 
	C2283.337158,898.489258 2317.047119,911.973816 2352.343018,920.831970 
	C2366.751465,924.448059 2381.739502,925.763000 2396.471924,928.073181 
	C2401.056396,928.792053 2405.667480,929.341614 2411.128418,929.990234 
	C2412.390869,954.825256 2396.769775,975.373413 2373.909912,982.331116 
	C2360.183838,986.508850 2346.180176,988.602417 2330.889160,988.026367 
	C2304.662842,986.333496 2280.017822,981.249268 2255.848145,973.673767 
	C2229.751221,965.494080 2204.484619,955.094727 2180.151855,942.795593 
	C2135.835205,920.395447 2094.230713,893.655334 2055.315186,862.652527 
	C2027.432129,840.438660 2000.779907,816.947998 1976.257812,791.112305 
	C1951.200684,764.713196 1930.131226,735.353088 1912.610352,703.408264 
	C1893.772461,669.061707 1880.002197,632.834167 1871.242432,594.682251 
	C1869.759399,588.223083 1868.517578,581.708557 1866.684082,574.640137 
z"/>
<path fill="#245D7F" opacity="1.000000" stroke="none" 
	d="
M2021.557617,422.409607 
	C2036.385376,433.172791 2051.088135,442.929199 2064.724609,453.999054 
	C2078.634766,465.290924 2092.211670,477.182770 2104.654785,490.049194 
	C2124.512207,510.581757 2143.615234,531.919128 2159.639893,555.682861 
	C2165.757568,564.755249 2171.129150,574.430115 2175.851074,584.303955 
	C2178.346191,589.521667 2179.522217,595.709717 2179.861084,601.542908 
	C2180.426270,611.281494 2174.783691,616.092957 2165.406494,613.199036 
	C2155.640869,610.185242 2145.895020,606.298706 2137.074951,601.182739 
	C2112.530273,586.945496 2090.581543,569.149048 2070.316895,549.318848 
	C2058.410645,537.667786 2046.209473,526.250488 2035.100708,513.867004 
	C2015.340698,491.839447 1996.135742,469.263824 1983.206055,442.259460 
	C1980.631836,436.883331 1978.550659,431.191650 1976.944946,425.448944 
	C1974.144897,415.435242 1978.472168,409.427551 1988.624634,410.188019 
	C1995.078735,410.671448 2001.518188,412.891296 2007.690063,415.098694 
	C2012.340332,416.761932 2016.555542,419.641266 2021.557617,422.409607 
z"/>
<path fill="#084369" opacity="1.000000" stroke="none" 
	d="
M556.793945,935.961853 
	C556.072510,932.269592 554.342468,930.182312 549.579224,929.782959 
	C540.345154,929.008972 531.183044,927.385376 521.987610,926.139954 
	C499.464111,923.089294 477.570740,917.170532 456.564911,908.863342 
	C432.153351,899.209167 407.932648,888.802307 384.510895,876.975769 
	C344.646881,856.846924 307.130310,832.692505 272.148407,804.902527 
	C252.661026,789.421570 234.103577,772.755798 215.365677,756.351379 
	C205.616501,747.816223 195.914291,739.135986 187.009705,729.744873 
	C161.538956,702.882446 139.233353,673.612427 120.584053,641.521423 
	C105.966393,616.367859 94.115173,589.989502 84.690315,562.587158 
	C75.604424,536.170288 69.226082,509.026825 65.846008,481.188049 
	C63.198570,459.383362 61.044842,437.549011 62.178833,415.615173 
	C63.188297,396.089935 64.919823,376.565063 69.788757,356.690857 
	C83.735664,350.013062 97.856415,352.215790 111.763245,355.167664 
	C135.732864,360.255493 157.579636,370.701477 178.656265,382.939575 
	C218.507843,406.079285 254.787613,434.161987 288.973419,464.785278 
	C320.415131,492.950409 351.159668,521.973022 380.998169,551.830383 
	C427.081696,597.942993 465.263824,650.208191 496.828339,707.254456 
	C518.613037,746.625854 536.583679,787.600769 548.569092,831.097534 
	C556.380615,859.446411 561.108521,888.150269 559.599731,917.641235 
	C559.296265,923.573242 558.129822,929.461121 556.793945,935.961853 
M126.246918,442.476593 
	C141.914749,473.776428 164.771774,499.795563 188.426422,524.961731 
	C202.947006,540.410095 219.469086,553.984924 235.183548,568.301025 
	C250.724213,582.458740 267.822540,594.555786 286.217377,604.625244 
	C293.406036,608.560425 301.483459,611.192932 309.452118,613.298279 
	C318.723602,615.747742 324.574799,610.783691 323.766632,601.033020 
	C323.286621,595.241455 321.344055,589.301758 318.858215,583.990723 
	C305.461151,555.367554 285.899353,530.920227 264.632080,507.998199 
	C244.514816,486.315643 223.515121,465.393677 200.098343,447.112457 
	C183.812332,434.398102 167.284317,422.022339 148.010437,414.140564 
	C142.596725,411.926727 136.573563,410.517334 130.744949,410.171478 
	C122.826012,409.701538 119.313866,413.195496 120.228683,421.000885 
	C121.027023,427.812531 123.736107,434.400238 126.246918,442.476593 
z"/>
<path fill="#114A6E" opacity="1.000000" stroke="none" 
	d="
M1152.257080,1709.421631 
	C1148.518677,1709.844604 1145.118286,1709.859741 1140.714355,1709.629639 
	C1139.710938,1709.384277 1138.964233,1709.186646 1138.964233,1709.186646 
	C1138.964233,1709.186646 1138.589111,1709.888672 1138.589111,1709.888672 
	C1138.589111,1709.888672 1138.016724,1710.185913 1137.694458,1710.151123 
	C1132.604004,1706.851318 1128.126587,1703.015869 1123.020264,1700.414795 
	C1090.962158,1684.084839 1060.299805,1665.451660 1030.227295,1644.652344 
	C1032.726074,1644.815674 1035.830566,1645.058228 1038.379883,1646.375488 
	C1068.188477,1661.777344 1097.898438,1677.369629 1127.670532,1692.842651 
	C1135.635742,1696.982300 1143.712280,1700.908813 1151.759766,1704.888672 
	C1153.915405,1705.954834 1155.244141,1707.043213 1152.257080,1709.421631 
z"/>
<path fill="#114A6E" opacity="1.000000" stroke="none" 
	d="
M1018.361755,1636.481934 
	C1019.160461,1636.424805 1020.223755,1636.889771 1021.528076,1637.907471 
	C1020.721558,1637.974854 1019.674011,1637.489502 1018.361755,1636.481934 
z"/>
<path fill="#114A6E" opacity="1.000000" stroke="none" 
	d="
M1027.569214,1642.789795 
	C1027.984131,1642.567139 1028.656738,1642.875732 1029.647461,1643.652588 
	C1029.252686,1643.854248 1028.539795,1643.587524 1027.569214,1642.789795 
z"/>
<path fill="#114A6E" opacity="1.000000" stroke="none" 
	d="
M1021.770142,1638.804443 
	C1022.197571,1638.592529 1022.812256,1638.912476 1023.698914,1639.686890 
	C1023.299744,1639.873047 1022.628601,1639.604736 1021.770142,1638.804443 
z"/>
<path fill="#0A3954" opacity="1.000000" stroke="none" 
	d="
M1760.782715,1772.138062 
	C1763.346680,1767.984009 1767.951782,1767.856323 1773.449097,1768.109619 
	C1770.017456,1769.537842 1765.785645,1770.872070 1760.782715,1772.138062 
z"/>
<path fill="#0A3954" opacity="1.000000" stroke="none" 
	d="
M1788.841797,1764.343994 
	C1791.236572,1759.893188 1795.906860,1759.882935 1801.415771,1760.085205 
	C1798.015991,1761.592529 1793.815430,1762.997559 1788.841797,1764.343994 
z"/>
<path fill="#0A3954" opacity="1.000000" stroke="none" 
	d="
M1734.848389,1778.393799 
	C1736.897339,1777.540894 1739.706055,1776.722656 1743.298828,1775.977295 
	C1741.258179,1776.842896 1738.433228,1777.635620 1734.848389,1778.393799 
z"/>
<path fill="#0A3954" opacity="1.000000" stroke="none" 
	d="
M1752.729248,1774.149170 
	C1754.208496,1773.352539 1756.408325,1772.628052 1759.340942,1771.975220 
	C1757.865723,1772.771851 1755.657715,1773.496704 1752.729248,1774.149170 
z"/>
<path fill="#0A3954" opacity="1.000000" stroke="none" 
	d="
M1744.729492,1776.149414 
	C1746.210815,1775.353516 1748.413208,1774.629883 1751.349365,1773.978271 
	C1749.872192,1774.774048 1747.661377,1775.497803 1744.729492,1776.149414 
z"/>
<path fill="#0A3954" opacity="1.000000" stroke="none" 
	d="
M1826.745117,1752.319580 
	C1827.643066,1751.515259 1829.229858,1750.763672 1831.514282,1750.100098 
	C1830.619263,1750.916260 1829.026733,1751.644409 1826.745117,1752.319580 
z"/>
<path fill="#0A3954" opacity="1.000000" stroke="none" 
	d="
M1820.746582,1754.323242 
	C1821.646484,1753.519897 1823.235596,1752.768799 1825.522949,1752.104858 
	C1824.626099,1752.919800 1823.031006,1753.647583 1820.746582,1754.323242 
z"/>
<path fill="#0A3954" opacity="1.000000" stroke="none" 
	d="
M1814.746582,1756.322998 
	C1815.647827,1755.520752 1817.238281,1754.770508 1819.527588,1754.107666 
	C1818.629517,1754.921753 1817.032715,1755.648560 1814.746582,1756.322998 
z"/>
<path fill="#0A3954" opacity="1.000000" stroke="none" 
	d="
M1808.746582,1758.322998 
	C1809.647827,1757.520752 1811.238403,1756.770630 1813.527466,1756.107666 
	C1812.629395,1756.921509 1811.032715,1757.648315 1808.746582,1758.322998 
z"/>
<path fill="#0A3954" opacity="1.000000" stroke="none" 
	d="
M1802.744385,1760.318848 
	C1803.646240,1759.516479 1805.237671,1758.768433 1807.527588,1758.107666 
	C1806.628784,1758.921021 1805.031250,1759.647217 1802.744385,1760.318848 
z"/>
<path fill="#0A3954" opacity="1.000000" stroke="none" 
	d="
M1782.529053,1766.183105 
	C1783.487061,1765.428711 1785.158325,1764.728149 1787.535889,1764.115723 
	C1786.575439,1764.881348 1784.908936,1765.559082 1782.529053,1766.183105 
z"/>
<path fill="#0A3954" opacity="1.000000" stroke="none" 
	d="
M1774.827148,1768.349609 
	C1775.922607,1767.561890 1777.794922,1766.833374 1780.466675,1766.204590 
	C1779.378784,1767.005981 1777.491455,1767.707397 1774.827148,1768.349609 
z"/>
<path fill="#0A3954" opacity="1.000000" stroke="none" 
	d="
M1138.945312,1709.917969 
	C1138.589111,1709.888672 1138.964233,1709.186646 1138.964233,1709.186646 
	C1138.964233,1709.186646 1139.710938,1709.384277 1139.863037,1709.642822 
	C1140.015015,1709.901367 1139.301514,1709.947266 1138.945312,1709.917969 
z"/>
<path fill="#09446A" opacity="1.000000" stroke="none" 
	d="
M1616.242432,443.483093 
	C1614.206421,410.643341 1621.048218,381.241333 1640.821655,355.499725 
	C1653.343384,339.198822 1669.595825,328.644104 1690.118408,326.719086 
	C1709.180664,324.931061 1725.886108,331.623993 1740.147217,344.591766 
	C1759.790894,362.453796 1769.331665,385.395935 1773.617920,410.854828 
	C1778.073120,437.317261 1774.958984,463.036530 1764.155396,487.675415 
	C1756.218628,505.776245 1744.421509,520.819763 1727.259155,530.951233 
	C1701.650391,546.068970 1672.330688,540.866760 1651.705078,522.173340 
	C1628.787109,501.402283 1618.826782,474.567657 1616.242432,443.483093 
z"/>
<path fill="#08446A" opacity="1.000000" stroke="none" 
	d="
M1461.450684,464.989838 
	C1456.815063,482.685486 1450.130737,498.470673 1438.825562,512.020142 
	C1423.737061,530.103760 1404.881958,541.139832 1380.897827,539.441406 
	C1358.354126,537.845032 1341.027344,525.878235 1327.992065,507.733490 
	C1312.996704,486.860229 1306.226562,463.380493 1305.566162,437.763367 
	C1304.936157,413.320282 1309.318359,390.238129 1321.401733,368.800385 
	C1327.836182,357.384735 1335.818481,347.351898 1346.507568,339.594147 
	C1376.714966,317.671173 1412.252686,323.826569 1436.598755,351.508209 
	C1455.274658,372.742889 1464.058472,398.317383 1464.175293,426.508148 
	C1464.227295,439.058136 1462.537476,451.615326 1461.450684,464.989838 
z"/>
<path fill="#245D7F" opacity="1.000000" stroke="none" 
	d="
M125.923950,441.781738 
	C123.736107,434.400238 121.027023,427.812531 120.228683,421.000885 
	C119.313866,413.195496 122.826012,409.701538 130.744949,410.171478 
	C136.573563,410.517334 142.596725,411.926727 148.010437,414.140564 
	C167.284317,422.022339 183.812332,434.398102 200.098343,447.112457 
	C223.515121,465.393677 244.514816,486.315643 264.632080,507.998199 
	C285.899353,530.920227 305.461151,555.367554 318.858215,583.990723 
	C321.344055,589.301758 323.286621,595.241455 323.766632,601.033020 
	C324.574799,610.783691 318.723602,615.747742 309.452118,613.298279 
	C301.483459,611.192932 293.406036,608.560425 286.217377,604.625244 
	C267.822540,594.555786 250.724213,582.458740 235.183548,568.301025 
	C219.469086,553.984924 202.947006,540.410095 188.426422,524.961731 
	C164.771774,499.795563 141.914749,473.776428 125.923950,441.781738 
z"/>
</svg>